<svg width="100" height="82" viewBox="0 0 100 82" fill="none" xmlns="http://www.w3.org/2000/svg">
<path d="M46.9419 20.7659C47.1932 20.73 47.4446 20.6941 47.6959 20.6582C47.4446 20.6821 47.1932 20.718 46.9419 20.7659Z" fill="#5ABC70"/>
<path d="M49.2757 20.5625C49.2757 20.5625 49.2517 20.5625 49.2397 20.5625C49.6228 20.5625 50.0058 20.5745 50.4007 20.6104C50.0177 20.5864 49.6467 20.5625 49.2757 20.5625Z" fill="#5ABC70"/>
<path d="M27.947 39.1623C28.1026 38.887 28.2702 38.6117 28.4258 38.3364C28.2582 38.6117 28.1026 38.887 27.947 39.1623Z" fill="#5ABC70"/>
<path d="M28.5815 38.0848C28.785 37.7257 29.0005 37.3666 29.2159 37.0195C29.0005 37.3786 28.797 37.7377 28.5815 38.0848Z" fill="#5ABC70"/>
<path d="M50.7122 20.6465C51.0114 20.6704 51.3106 20.7183 51.6218 20.7542C51.3106 20.7063 51.0114 20.6704 50.7122 20.6465Z" fill="#5ABC70"/>
<path d="M31.49 33.3811C31.7174 33.034 31.9568 32.6869 32.1842 32.3398C31.9448 32.6869 31.7174 33.034 31.49 33.3811Z" fill="#5ABC70"/>
<path d="M21.3643 33.5488C21.4839 33.7044 21.5917 33.86 21.7114 34.0276C21.6036 33.872 21.4839 33.7044 21.3643 33.5488Z" fill="#5ABC70"/>
<path d="M51.9807 20.814C52.3637 20.8858 52.7467 20.9576 53.1297 21.0533C52.7348 20.9576 52.3517 20.8858 51.9807 20.814Z" fill="#5ABC70"/>
<path d="M45.7927 21.0055C46.0321 20.9456 46.2835 20.8858 46.5348 20.8379C46.2835 20.8858 46.0441 20.9456 45.7927 21.0055Z" fill="#5ABC70"/>
<path d="M19.2698 31.478C19.4014 31.5618 19.5331 31.6695 19.6528 31.7653C19.5211 31.6695 19.4014 31.5618 19.2698 31.478Z" fill="#5ABC70"/>
<path d="M17.7139 30.8081C17.8575 30.832 17.9892 30.8799 18.1328 30.9278C17.9892 30.8799 17.8575 30.844 17.7139 30.8081Z" fill="#5ABC70"/>
<path d="M18.5037 31.0591C18.6353 31.1189 18.7789 31.1907 18.9106 31.2626C18.7789 31.1907 18.6473 31.1189 18.5037 31.0591Z" fill="#5ABC70"/>
<path d="M17.0558 30.7239C16.9481 30.7239 16.8284 30.7239 16.7207 30.7359C16.9242 30.7119 17.1276 30.7359 17.3191 30.7478C17.2354 30.7478 17.1396 30.7119 17.0558 30.7119V30.7239Z" fill="#5ABC70"/>
<path d="M75.0686 35.1766C75.1763 34.638 75.296 34.0635 75.4396 33.4771C75.296 34.0635 75.1644 34.638 75.0686 35.1766Z" fill="#5ABC70"/>
<path d="M74.0752 37.1274C74.0752 37.1274 74.1231 37.1633 74.147 37.1753C74.1231 37.1633 74.0991 37.1394 74.0752 37.1274Z" fill="#5ABC70"/>
<path d="M27.313 40.2753C27.4446 40.0478 27.5763 39.8204 27.708 39.5811C27.5763 39.8085 27.4446 40.0359 27.313 40.2753Z" fill="#5ABC70"/>
<path d="M20 32.0405C20.1317 32.1482 20.2513 32.2799 20.371 32.3996C20.2513 32.2799 20.1197 32.1482 20 32.0405Z" fill="#5ABC70"/>
<path d="M54.8652 21.5679C55.1884 21.6756 55.5235 21.8072 55.8467 21.9389C55.5116 21.8072 55.1884 21.6876 54.8652 21.5679Z" fill="#5ABC70"/>
<path d="M24.979 40.3472C25.0628 40.5387 25.1346 40.7182 25.2064 40.9097C25.1346 40.7302 25.0628 40.5387 24.979 40.3472Z" fill="#5ABC70"/>
<path d="M25.3381 41.2329C25.4339 41.4843 25.5296 41.7117 25.6134 41.9271C25.5296 41.6997 25.4339 41.4723 25.3381 41.2329Z" fill="#5ABC70"/>
<path d="M26.5947 41.5441C26.7623 41.2569 26.9299 40.9577 27.0974 40.6704C26.9299 40.9696 26.7623 41.2569 26.5947 41.5441Z" fill="#5ABC70"/>
<path d="M30.1016 35.5597C30.2452 35.3203 30.4008 35.0809 30.5444 34.8535C30.4008 35.0929 30.2452 35.3323 30.1016 35.5597Z" fill="#5ABC70"/>
<path d="M36.553 26.8702C36.7445 26.6667 36.936 26.4752 37.1275 26.2837C36.936 26.4752 36.7445 26.6787 36.553 26.8702Z" fill="#5ABC70"/>
<path d="M24.5842 39.4014C24.668 39.5929 24.7398 39.7844 24.8236 39.9639C24.7398 39.7724 24.668 39.5929 24.5842 39.4014Z" fill="#5ABC70"/>
<path d="M32.3159 32.1606C32.5074 31.8733 32.7109 31.598 32.9024 31.3228C32.6989 31.598 32.5074 31.8853 32.3159 32.1606Z" fill="#5ABC70"/>
<path d="M33.1538 30.9754C33.3214 30.748 33.477 30.5326 33.6445 30.3052C33.477 30.5206 33.3094 30.748 33.1538 30.9754Z" fill="#5ABC70"/>
<path d="M22.585 35.3921C22.6927 35.5716 22.7884 35.7512 22.8961 35.9427C22.7884 35.7631 22.6927 35.5716 22.585 35.3921Z" fill="#5ABC70"/>
<path d="M23.1355 36.3735C23.2312 36.565 23.339 36.7565 23.4347 36.948C23.339 36.7565 23.2432 36.565 23.1355 36.3735Z" fill="#5ABC70"/>
<path d="M41.3762 22.8847C41.5917 22.7531 41.7951 22.6334 42.0106 22.5137C41.7951 22.6334 41.5797 22.7531 41.3762 22.8847Z" fill="#5ABC70"/>
<path d="M40.335 23.5669C40.5624 23.3993 40.8017 23.2437 41.0411 23.1001C40.8017 23.2557 40.5743 23.4113 40.335 23.5669Z" fill="#5ABC70"/>
<path d="M37.4387 25.9724C37.6183 25.7929 37.8098 25.6134 38.0013 25.4458C37.8098 25.6134 37.6302 25.7929 37.4387 25.9724Z" fill="#5ABC70"/>
<path d="M39.1978 24.4166C39.497 24.1772 39.7962 23.9498 40.0954 23.7344C39.7962 23.9498 39.497 24.1892 39.1978 24.4166Z" fill="#5ABC70"/>
<path d="M29.3958 36.7206C29.5513 36.4573 29.7069 36.194 29.8745 35.9307C29.7189 36.194 29.5513 36.4573 29.3958 36.7206Z" fill="#5ABC70"/>
<path d="M48.0789 20.6226C48.39 20.5986 48.7132 20.5867 49.0364 20.5747C48.7132 20.5747 48.39 20.5986 48.0789 20.6226Z" fill="#5ABC70"/>
<path d="M85.5295 37.9536C85.5295 38.0613 85.5176 38.181 85.5056 38.2887C85.5056 38.181 85.5176 38.0733 85.5295 37.9536Z" fill="#5ABC70"/>
<path d="M85.5652 37.355C85.5652 37.4747 85.5532 37.5824 85.5413 37.7021C85.5413 37.5944 85.5532 37.4747 85.5652 37.355Z" fill="#5ABC70"/>
<path d="M85.6013 33.8242C85.6013 34.0397 85.6133 34.2671 85.6133 34.4825C85.6133 34.2671 85.6133 34.0397 85.6013 33.8242Z" fill="#5ABC70"/>
<path d="M85.5894 36.7324C85.5894 36.8521 85.5894 36.9718 85.5774 37.0915C85.5774 36.9718 85.5774 36.8521 85.5894 36.7324Z" fill="#5ABC70"/>
<path d="M84.8115 28.7012C84.8474 28.8089 84.8833 28.9166 84.9192 29.0363C84.8833 28.9286 84.8474 28.8089 84.8115 28.7012Z" fill="#5ABC70"/>
<path d="M85.3738 31.1309C85.3977 31.2745 85.4097 31.4061 85.4336 31.5498C85.4216 31.4061 85.3977 31.2625 85.3738 31.1309Z" fill="#5ABC70"/>
<path d="M85.5657 33.1177C85.5776 33.3451 85.5896 33.5845 85.6016 33.8119C85.6016 33.5845 85.5776 33.3451 85.5657 33.1177Z" fill="#5ABC70"/>
<path d="M85.1348 29.8623C85.1587 29.982 85.1946 30.1137 85.2185 30.2333C85.1946 30.1137 85.1707 29.982 85.1348 29.8623Z" fill="#5ABC70"/>
<path d="M85.5173 32.4478C85.5293 32.6393 85.5532 32.8427 85.5652 33.0342C85.5532 32.8427 85.5413 32.6393 85.5173 32.4478Z" fill="#5ABC70"/>
<path d="M85.4578 31.7773C85.4817 31.9329 85.4937 32.1005 85.5056 32.2561C85.4937 32.1005 85.4697 31.9329 85.4578 31.7773Z" fill="#5ABC70"/>
<path d="M74.3987 37.2593C74.3987 37.2593 74.3269 37.2593 74.291 37.2354C74.3269 37.2354 74.3628 37.2473 74.3987 37.2593Z" fill="#5ABC70"/>
<path d="M73.6923 36.7205C73.7881 36.8162 73.8599 36.912 73.9437 36.9838C73.8719 36.9 73.7881 36.8162 73.6923 36.7205Z" fill="#5ABC70"/>
<path d="M15.5955 65.9366C15.6792 64.608 16.0263 63.088 16.3615 61.6278C16.6008 60.5506 16.9719 58.9587 16.9719 58.3124C16.7564 57.4985 15.6074 55.0808 14.985 53.7522C14.3627 52.4357 13.8241 51.2986 13.5129 50.4728C8.77319 37.9413 10.2454 32.5434 11.55 30.4369C12.6152 28.7133 14.3387 27.6481 16.3974 27.4446C16.6248 27.4207 16.8402 27.4087 17.0676 27.4087C21.3525 27.4087 24.3208 31.3465 26.3674 35.3561C31.7295 26.3555 38.5637 17.2591 49.2998 17.2591C52.4357 17.2591 55.7271 18.085 59.0664 19.7247C64.7157 22.5015 68.8211 26.7026 72.7229 30.8558C74.4225 25.2184 76.8761 23.2196 78.851 22.5972C79.6888 22.3339 80.5147 22.2023 81.2926 22.2023C83.1957 22.2023 84.8833 22.9563 86.164 24.4045C89.3597 27.9952 89.24 35.5117 88.5817 41.1729C88.2226 44.213 87.5404 47.1574 86.8342 50.0179C89.228 54.7098 91.3944 60.2154 91.3944 66.0323C97.0557 59.246 100 50.5087 100 40.3232C99.9761 14.9132 82.2382 0 50.377 0C18.5159 0 0 14.9132 0 40.3351C0 54.0874 5.56553 65.1346 15.8109 72.3399C15.5236 70.3291 15.4518 68.1987 15.5955 65.9366Z" fill="#5ABC70"/>
<path d="M85.4099 39.5693C85.4099 39.6531 85.398 39.7249 85.386 39.8087C85.386 39.7249 85.398 39.6531 85.4099 39.5693Z" fill="#5ABC70"/>
<path d="M85.4934 38.5278C85.4934 38.6356 85.4815 38.7433 85.4695 38.839C85.4695 38.7313 85.4814 38.6356 85.4934 38.5278Z" fill="#5ABC70"/>
<path d="M85.4456 39.0664C85.4456 39.1622 85.4336 39.2579 85.4216 39.3537C85.4216 39.2579 85.4336 39.1622 85.4456 39.0664Z" fill="#5ABC70"/>
<path d="M85.314 40.4429C85.314 40.5027 85.302 40.5626 85.29 40.6224C85.29 40.5626 85.302 40.5147 85.314 40.4429Z" fill="#5ABC70"/>
<path d="M85.3621 40.0361C85.3621 40.1079 85.3501 40.1678 85.3381 40.2276C85.3381 40.1678 85.3501 40.1079 85.3621 40.0361Z" fill="#5ABC70"/>
<path d="M84.9907 29.2642C85.0266 29.3838 85.0506 29.4916 85.0865 29.6113C85.0625 29.4916 85.0266 29.3719 84.9907 29.2642Z" fill="#5ABC70"/>
<path d="M83.0042 26.0205C83.1119 26.0923 83.2076 26.1761 83.3153 26.2599C83.2196 26.1761 83.1119 26.0923 83.0042 26.0205Z" fill="#5ABC70"/>
<path d="M83.3752 26.2954C83.4949 26.4031 83.6027 26.5109 83.7104 26.6425C83.6027 26.5228 83.4949 26.4031 83.3752 26.2954Z" fill="#5ABC70"/>
<path d="M83.77 26.7266C83.8538 26.8223 83.9256 26.9181 83.9974 27.0258C83.9256 26.9181 83.8418 26.8223 83.77 26.7266Z" fill="#5ABC70"/>
<path d="M81.6755 25.5415C81.7713 25.5415 81.867 25.5654 81.9508 25.5894C81.8551 25.5654 81.7713 25.5535 81.6755 25.5415Z" fill="#5ABC70"/>
<path d="M77.7378 27.5643C78.037 27.1214 78.3602 26.7265 78.7073 26.4272C78.3602 26.7384 78.037 27.1214 77.7378 27.5643Z" fill="#5ABC70"/>
<path d="M80.5266 25.5894C80.5984 25.5774 80.6702 25.5774 80.7421 25.5654C80.6702 25.5654 80.5984 25.5774 80.5266 25.5894Z" fill="#5ABC70"/>
<path d="M81.2806 25.5178C81.2806 25.5178 81.2088 25.5178 81.1848 25.5178C81.2806 25.5178 81.3643 25.5178 81.4601 25.5178C81.4002 25.5178 81.3404 25.5059 81.2806 25.5059V25.5178Z" fill="#5ABC70"/>
<path d="M82.1545 25.6372C82.2503 25.6611 82.3341 25.6971 82.4179 25.733C82.3341 25.6971 82.2383 25.6611 82.1545 25.6372Z" fill="#5ABC70"/>
<path d="M84.6082 28.1626C84.656 28.2703 84.6919 28.3661 84.7278 28.4738C84.6919 28.3661 84.6441 28.2583 84.6082 28.1626Z" fill="#5ABC70"/>
<path d="M87.672 69.8506C87.7199 69.6232 87.7797 69.4077 87.8156 69.1803C87.9114 68.6298 87.9712 68.0792 88.0191 67.5286C88.1388 65.9607 88.067 64.3928 87.8396 62.8368C87.6002 61.2569 87.2052 59.689 86.6906 58.133C86.3435 57.0918 85.9485 56.0624 85.5056 55.0331C85.2902 54.5184 85.0508 54.0038 84.8234 53.5011C84.3447 52.4837 83.83 51.4664 83.3034 50.461C83.5068 49.6711 83.6983 48.8691 83.8898 48.0792C84.2729 46.4873 84.6319 44.8715 84.9192 43.2557C85.0628 42.4418 85.1825 41.6399 85.2782 40.8261C85.2782 40.7662 85.2902 40.7064 85.3022 40.6465C85.3022 40.5867 85.3141 40.5388 85.3261 40.467C85.3261 40.3952 85.3381 40.3234 85.3501 40.2515C85.3501 40.1917 85.362 40.1319 85.374 40.06C85.374 39.9882 85.386 39.9044 85.3979 39.8326C85.3979 39.7488 85.4099 39.677 85.4219 39.5933C85.4219 39.5214 85.4338 39.4496 85.4458 39.3778C85.4458 39.2821 85.4578 39.1863 85.4697 39.0906C85.4697 39.0187 85.4817 38.9469 85.4937 38.8632C85.4937 38.7554 85.5056 38.6597 85.5176 38.552C85.5176 38.4682 85.5176 38.3964 85.5296 38.3126C85.5296 38.2049 85.5416 38.0971 85.5535 37.9775C85.5535 37.8937 85.5535 37.8099 85.5655 37.7261C85.5655 37.6184 85.5775 37.4987 85.5894 37.379C85.5894 37.2952 85.5894 37.1995 85.6014 37.1157C85.6014 36.996 85.6014 36.8763 85.6134 36.7566C85.6134 36.6728 85.6134 36.5771 85.6134 36.4933C85.6134 36.3617 85.6134 36.23 85.6134 36.0983C85.6134 36.0146 85.6134 35.9308 85.6134 35.847C85.6134 35.7034 85.6134 35.5597 85.6134 35.4281C85.6134 35.3443 85.6134 35.2725 85.6134 35.1887C85.6134 35.0331 85.6134 34.8775 85.6134 34.7219C85.6134 34.6501 85.6134 34.5903 85.6134 34.5185C85.6134 34.303 85.6134 34.0756 85.6014 33.8602C85.6014 33.8602 85.6014 33.8602 85.6014 33.8482C85.6014 33.6208 85.5775 33.3814 85.5655 33.154C85.5655 33.1301 85.5655 33.0942 85.5655 33.0702C85.5535 32.8787 85.5415 32.6752 85.5176 32.4837C85.5176 32.4239 85.5056 32.3641 85.5056 32.2922C85.4937 32.1366 85.4697 31.9691 85.4578 31.8135C85.4578 31.7417 85.4338 31.6579 85.4338 31.5861C85.4219 31.4424 85.3979 31.2988 85.374 31.1672C85.362 31.0834 85.3501 30.9996 85.3381 30.9278C85.3141 30.7961 85.2902 30.6645 85.2663 30.5328C85.2543 30.449 85.2304 30.3652 85.2184 30.2934C85.1945 30.1737 85.1705 30.0421 85.1346 29.9224C85.1107 29.8386 85.0987 29.7548 85.0748 29.6711C85.0508 29.5514 85.0149 29.4317 84.979 29.324C84.9551 29.2402 84.9311 29.1684 84.9072 29.0846C84.8713 28.9769 84.8354 28.8572 84.7995 28.7495C84.7755 28.6776 84.7516 28.5939 84.7157 28.522C84.6798 28.4143 84.6319 28.3066 84.596 28.2109C84.5721 28.139 84.5362 28.0672 84.5122 28.0074C84.4644 27.8997 84.4165 27.8039 84.3686 27.7082C84.3327 27.6483 84.3088 27.5885 84.2729 27.5286C84.213 27.4329 84.1532 27.3371 84.0933 27.2414C84.0574 27.1935 84.0335 27.1337 83.9976 27.0858C83.9258 26.9781 83.842 26.8823 83.7702 26.7866C83.7462 26.7626 83.7223 26.7267 83.6983 26.6908C83.5906 26.5711 83.4829 26.4514 83.3632 26.3437C83.3393 26.3317 83.3273 26.3078 83.3034 26.2958C83.2076 26.212 83.0999 26.1283 82.9922 26.0565C82.9443 26.0325 82.8964 26.0086 82.8486 25.9727C82.7648 25.9248 82.681 25.8769 82.5852 25.829C82.5254 25.8051 82.4655 25.7812 82.4057 25.7572C82.3219 25.7213 82.2262 25.6854 82.1424 25.6615C82.0825 25.6375 82.0107 25.6256 81.9389 25.6136C81.8432 25.5897 81.7594 25.5777 81.6636 25.5657C81.5918 25.5657 81.52 25.5657 81.4362 25.5538C81.3405 25.5538 81.2567 25.5538 81.1609 25.5538C81.0173 25.5538 80.8737 25.5777 80.7181 25.5897C80.6463 25.5897 80.5745 25.6016 80.5027 25.6136C80.2752 25.6495 80.0478 25.7094 79.7965 25.7812C79.4015 25.9009 79.0185 26.1402 78.6714 26.4395C78.3243 26.7387 78.0012 27.1337 77.7019 27.5765C77.4506 27.9475 77.2232 28.3664 77.0077 28.8093C76.924 28.9769 76.8402 29.1444 76.7684 29.324C76.4691 30.0062 76.2058 30.7243 75.9664 31.4664C75.751 32.1486 75.5595 32.8308 75.4039 33.4891C75.2603 34.0756 75.1286 34.6501 75.0329 35.1887C74.9252 35.7273 74.8414 36.218 74.7696 36.6489C74.7337 36.8644 74.6977 37.0678 74.6738 37.2474C74.5781 37.2713 74.5062 37.2833 74.4344 37.2833C74.4105 37.2833 74.3985 37.2833 74.3746 37.2713C74.3387 37.2713 74.3028 37.2713 74.2669 37.2474C74.207 37.2354 74.1591 37.2114 74.1113 37.1875C74.0873 37.1755 74.0514 37.1516 74.0395 37.1396C73.9916 37.1037 73.9437 37.0559 73.8958 37.008C73.824 36.9242 73.7402 36.8404 73.6445 36.7447C68.6654 31.61 64.213 25.9846 57.5463 22.7171C57.0915 22.4897 56.6367 22.2982 56.1939 22.1067C56.0622 22.0469 55.9425 21.999 55.8109 21.9511C55.4757 21.8195 55.1526 21.6998 54.8294 21.5801C54.7097 21.5322 54.5781 21.4963 54.4584 21.4604C54.0275 21.3168 53.6086 21.1971 53.1897 21.0894C53.1538 21.0894 53.1298 21.0774 53.1059 21.0654C52.7109 20.9697 52.3279 20.8979 51.9569 20.8261C51.8372 20.8021 51.7175 20.7901 51.5978 20.7662C51.2866 20.7183 50.9874 20.6824 50.6882 20.6585C50.5805 20.6585 50.4727 20.6346 50.365 20.6226C49.97 20.5986 49.587 20.5747 49.204 20.5747C49.1322 20.5747 49.0724 20.5747 49.0006 20.5747C48.6774 20.5747 48.3542 20.5986 48.043 20.6226C47.9114 20.6226 47.7797 20.6465 47.66 20.6585C47.4087 20.6824 47.1574 20.7183 46.906 20.7662C46.7743 20.7901 46.6427 20.8141 46.4991 20.838C46.2477 20.8859 46.0083 20.9457 45.757 21.0056C45.6373 21.0295 45.5176 21.0654 45.3979 21.0894C45.0748 21.1732 44.7516 21.2809 44.4404 21.3886C44.4045 21.3886 44.3806 21.4125 44.3447 21.4245C43.9976 21.5442 43.6624 21.6878 43.3273 21.8314C43.2196 21.8793 43.1119 21.9272 43.0161 21.9751C42.7887 22.0828 42.5613 22.1905 42.3339 22.3102C42.2142 22.37 42.0945 22.4419 41.9748 22.5017C41.7594 22.6214 41.544 22.7411 41.3405 22.8727C41.2328 22.9445 41.1131 23.0044 41.0053 23.0762C40.766 23.2318 40.5386 23.3874 40.2992 23.543C40.2154 23.6028 40.1436 23.6507 40.0598 23.7106C39.7606 23.926 39.4614 24.1654 39.1621 24.3928C39.0784 24.4526 39.0065 24.5244 38.9228 24.5962C38.7073 24.7758 38.4919 24.9553 38.2764 25.1468C38.1687 25.2426 38.061 25.3383 37.9653 25.4341C37.7738 25.6016 37.5942 25.7812 37.4027 25.9607C37.295 26.0565 37.1992 26.1642 37.0915 26.2719C36.9 26.4634 36.7085 26.6669 36.517 26.8584C36.4332 26.9541 36.3495 27.0379 36.2537 27.1337C35.9784 27.4209 35.7151 27.7201 35.4518 28.0193C35.4159 28.0672 35.38 28.1031 35.3441 28.151C35.1167 28.4143 34.8893 28.6896 34.6618 28.9649C34.5781 29.0726 34.4823 29.1803 34.3985 29.288C34.231 29.5035 34.0634 29.7189 33.8958 29.9344C33.8001 30.0541 33.7043 30.1857 33.6086 30.3054C33.441 30.5208 33.2735 30.7483 33.1179 30.9757C33.0341 31.0954 32.9503 31.2031 32.8665 31.3228C32.663 31.598 32.4715 31.8853 32.28 32.1606C32.2322 32.2204 32.1963 32.2803 32.1484 32.3521C31.909 32.6992 31.6816 33.0463 31.4542 33.3934C31.3824 33.5011 31.3106 33.6088 31.2387 33.7165C31.0831 33.9679 30.9156 34.2073 30.76 34.4586C30.6762 34.5903 30.5924 34.7219 30.5086 34.8536C30.365 35.093 30.2094 35.3323 30.0658 35.5597C29.994 35.6794 29.9102 35.8111 29.8384 35.9308C29.6828 36.1941 29.5152 36.4574 29.3596 36.7207C29.2998 36.8165 29.2399 36.9122 29.1801 37.0199C28.9647 37.379 28.7612 37.7381 28.5457 38.0852C28.4979 38.169 28.45 38.2527 28.4021 38.3365C28.2346 38.6118 28.079 38.8871 27.9234 39.1624C27.8396 39.306 27.7678 39.4377 27.684 39.5813C27.5523 39.8087 27.4207 40.0361 27.289 40.2755C27.2172 40.4071 27.1334 40.5388 27.0616 40.6705C26.894 40.9577 26.7265 41.2569 26.5589 41.5442C26.523 41.616 26.4751 41.6878 26.4392 41.7477C26.2597 42.0708 26.0682 42.394 25.8887 42.7171C25.7929 42.4778 25.6852 42.2144 25.5775 41.9392C25.4937 41.7117 25.3979 41.4843 25.3022 41.245C25.2663 41.1372 25.2184 41.0295 25.1705 40.9218C25.0987 40.7423 25.0269 40.5508 24.9431 40.3593C24.8952 40.2396 24.8354 40.1079 24.7755 39.9763C24.6918 39.7848 24.62 39.6052 24.5362 39.4137C24.4763 39.2821 24.4165 39.1384 24.3566 38.9948C24.2729 38.8033 24.1891 38.6118 24.1053 38.4203C24.0454 38.2767 23.9736 38.1331 23.9018 37.9894C23.8061 37.7979 23.7223 37.6064 23.6265 37.4149C23.5547 37.2713 23.4829 37.1157 23.3991 36.9721C23.3034 36.7806 23.2076 36.5891 23.0999 36.3976C23.0161 36.242 22.9323 36.0983 22.8486 35.9547C22.7408 35.7752 22.6451 35.5837 22.5374 35.4041C22.4536 35.2605 22.3578 35.1169 22.2741 34.9613C22.1663 34.7937 22.0586 34.6142 21.9509 34.4466C21.8551 34.303 21.7594 34.1714 21.6636 34.0277C21.5559 33.8721 21.4362 33.7046 21.3165 33.549C21.2208 33.4173 21.1131 33.2976 21.0054 33.166C20.8857 33.0223 20.766 32.8787 20.6463 32.7471C20.5386 32.6274 20.4308 32.5196 20.3231 32.4119C20.2034 32.2922 20.0718 32.1606 19.9521 32.0529C19.8444 31.9571 19.7247 31.8614 19.605 31.7776C19.4733 31.6818 19.3536 31.5741 19.222 31.4903C19.1023 31.4065 18.9826 31.3467 18.8629 31.2749C18.7313 31.2031 18.5996 31.1313 18.456 31.0714C18.3363 31.0116 18.2046 30.9757 18.0849 30.9398C17.9413 30.8919 17.8097 30.856 17.666 30.8201C17.5344 30.7961 17.4027 30.7842 17.2711 30.7722C17.0676 30.7602 16.8761 30.7363 16.6726 30.7602C14.2908 30.9996 13.4889 33.1899 13.5009 36.0146C13.5009 36.4813 13.5248 36.9721 13.5727 37.4748C13.6565 38.4802 13.8121 39.5214 14.0155 40.5627C14.1232 41.0894 14.231 41.604 14.3507 42.1187C14.4703 42.6334 14.602 43.136 14.7337 43.6387C14.8653 44.1414 14.997 44.6202 15.1406 45.075C15.2842 45.5298 15.4159 45.9846 15.5475 46.4035C15.8109 47.2414 16.0742 47.9715 16.2776 48.5579C16.3854 48.8572 16.4811 49.1085 16.5529 49.324C16.6487 49.5633 16.7684 49.8626 16.912 50.1977C17.0556 50.5328 17.2352 50.9038 17.4147 51.2988C17.69 51.8853 18.0012 52.5316 18.3124 53.1899C18.827 54.2791 19.3417 55.3922 19.7007 56.3018C19.988 57.0319 20.1915 57.6423 20.2154 58.0134C20.2513 58.4921 20.1915 59.0906 20.0837 59.7608C19.976 60.4311 19.8085 61.1731 19.6409 61.9272C19.4733 62.6812 19.2938 63.4472 19.1502 64.1773C19.0065 64.9074 18.8869 65.5897 18.851 66.1761C18.6475 69.3359 18.9108 72.1965 19.617 74.7578C27.66 79.1983 37.9892 81.628 50.3411 81.628C66.6188 81.628 79.21 77.3551 87.6241 69.8626L87.672 69.8506ZM59.2938 48.3545C61.7235 42.2264 70.9515 42.0229 73.4171 48.3066C73.8839 49.4915 74.8294 53.3216 72.6271 52.8428C71.2627 52.5436 71.3704 49.9224 70.6762 48.6417C69.0006 45.5897 64.4883 45.3503 62.3937 48.0313C60.8378 50.0182 61.7833 51.5143 60.9455 53.5968C57.7977 54.5783 58.5637 50.2097 59.3058 48.3545H59.2938ZM46.8342 51.2629C45.5296 48.5579 42.2142 47.6603 39.6768 49.288C36.6726 51.227 38.432 54.5304 37.2352 55.7393C34.9371 57.0439 34.8533 54.0038 34.997 52.4837C35.2842 49.4915 38.073 46.3916 41.0652 45.8889C43.3273 45.5179 45.8886 46.1761 47.5044 47.8518C48.5697 48.9529 51.0472 53.525 49.3836 54.5544C47.4326 55.7512 47.3728 52.4 46.8342 51.2749V51.2629ZM48.3183 60.3234C49.3477 59.0427 51.5739 61.4125 53.1179 61.7357C56.9958 62.5496 58.456 60.5388 61.2447 58.5161L62.0586 58.9469C63.5547 60.9338 58.6714 63.914 56.9838 64.2013C55.6792 64.4287 53.7402 64.3808 52.4237 64.1295C51.0951 63.8781 47.0137 61.9152 48.3064 60.3234H48.3183Z" fill="#5ABC70"/>
<path d="M18.8987 66.1521C18.9346 65.5657 19.0543 64.8834 19.1979 64.1533C19.3416 63.4232 19.5211 62.6572 19.6887 61.9032C19.8562 61.1492 20.0238 60.4071 20.1315 59.7368C20.2392 59.0666 20.2991 58.4681 20.2632 57.9894C20.2392 57.6183 20.0358 57.0079 19.7485 56.2778C19.3894 55.3682 18.8748 54.2551 18.3601 53.1659C18.0489 52.5076 17.7377 51.8613 17.4625 51.2748C17.2829 50.8798 17.1034 50.5088 16.9598 50.1737C16.8161 49.8386 16.6845 49.5513 16.6007 49.3C16.5169 49.0845 16.4212 48.8332 16.3254 48.5339C16.11 47.9475 15.8586 47.2054 15.5953 46.3796C15.4636 45.9606 15.32 45.5178 15.1884 45.051C15.0567 44.5842 14.9131 44.1055 14.7814 43.6147C14.6498 43.124 14.5181 42.6094 14.3984 42.0947C14.2787 41.58 14.159 41.0534 14.0633 40.5387C13.8598 39.4974 13.7042 38.4442 13.6204 37.4508C13.5726 36.9481 13.5606 36.4573 13.5486 35.9906C13.5486 33.1659 14.3386 30.9756 16.7204 30.7362C16.8281 30.7362 16.9478 30.7243 17.0555 30.7243C17.1513 30.7243 17.235 30.7482 17.3188 30.7602C17.4505 30.7602 17.5821 30.7841 17.7138 30.808C17.8574 30.832 17.9891 30.8799 18.1327 30.9277C18.2644 30.9636 18.3841 31.0115 18.5037 31.0594C18.6354 31.1192 18.779 31.191 18.9107 31.2629C19.0304 31.3347 19.1501 31.3945 19.2698 31.4783C19.4014 31.5621 19.5331 31.6698 19.6528 31.7655C19.7724 31.8613 19.8802 31.9451 19.9999 32.0408C20.1315 32.1486 20.2512 32.2802 20.3709 32.3999C20.4786 32.5076 20.5863 32.6153 20.6941 32.735C20.8137 32.8667 20.9334 33.0103 21.0531 33.1539C21.1608 33.2736 21.2566 33.4053 21.3643 33.5369C21.484 33.6925 21.5917 33.8481 21.7114 34.0157C21.8072 34.1474 21.9029 34.291 21.9987 34.4346C22.1064 34.6022 22.2141 34.7817 22.3218 34.9493C22.4176 35.0929 22.5014 35.2365 22.5851 35.3921C22.6929 35.5717 22.7886 35.7512 22.8963 35.9427C22.9801 36.0863 23.0639 36.2419 23.1477 36.3855C23.2434 36.577 23.3511 36.7685 23.4469 36.96C23.5187 37.1037 23.6025 37.2593 23.6743 37.4029C23.7701 37.5944 23.8538 37.7859 23.9496 37.9774C24.0214 38.121 24.0932 38.2647 24.1531 38.4083C24.2368 38.5998 24.3206 38.7913 24.4044 38.9828C24.4642 39.1264 24.5241 39.2581 24.5839 39.4017C24.6677 39.5932 24.7395 39.7847 24.8233 39.9642C24.8712 40.0959 24.931 40.2275 24.9909 40.3472C25.0747 40.5387 25.1465 40.7183 25.2183 40.9098C25.2662 41.0175 25.314 41.1372 25.3499 41.2329C25.4457 41.4843 25.5414 41.7117 25.6252 41.9271C25.7329 42.2144 25.8407 42.4777 25.9364 42.7051C26.116 42.3819 26.3075 42.0588 26.487 41.7356C26.5229 41.6638 26.5708 41.592 26.6067 41.5322C26.7742 41.2449 26.9418 40.9457 27.1094 40.6584C27.1812 40.5268 27.253 40.3951 27.3368 40.2635C27.4684 40.036 27.6001 39.8086 27.7318 39.5693C27.8155 39.4256 27.8873 39.294 27.9711 39.1503C28.1267 38.8751 28.2943 38.5998 28.4499 38.3245C28.4978 38.2407 28.5456 38.1569 28.5935 38.0731C28.797 37.7141 29.0124 37.355 29.2279 37.0079C29.2877 36.9122 29.3475 36.8164 29.4074 36.7087C29.563 36.4454 29.7186 36.1821 29.8861 35.9187C29.958 35.7991 30.0417 35.6674 30.1136 35.5477C30.2572 35.3083 30.4128 35.069 30.5564 34.8416C30.6402 34.7099 30.724 34.5782 30.8078 34.4466C30.9633 34.1952 31.1309 33.9559 31.2865 33.7045C31.3583 33.5968 31.4301 33.4891 31.5019 33.3813C31.7294 33.0342 31.9687 32.6872 32.1961 32.3401C32.244 32.2802 32.2799 32.2204 32.3278 32.1486C32.5193 31.8613 32.7228 31.586 32.9143 31.3107C32.9981 31.191 33.0818 31.0833 33.1656 30.9636C33.3332 30.7362 33.4888 30.5208 33.6563 30.2934C33.7521 30.1737 33.8478 30.042 33.9436 29.9223C34.1112 29.7069 34.2787 29.4915 34.4463 29.276C34.5301 29.1683 34.6258 29.0606 34.7096 28.9529C34.937 28.6776 35.1644 28.4023 35.3918 28.139C35.4277 28.0911 35.4636 28.0552 35.4996 28.0073C35.7629 27.7081 36.0262 27.4089 36.3015 27.1216C36.3853 27.0259 36.469 26.9421 36.5648 26.8463C36.7563 26.6429 36.9478 26.4514 37.1393 26.2599C37.247 26.1521 37.3428 26.0564 37.4505 25.9487C37.63 25.7691 37.8215 25.5896 38.013 25.422C38.1207 25.3263 38.2165 25.2305 38.3242 25.1348C38.5396 24.9433 38.7551 24.7638 38.9705 24.5842C39.0543 24.5244 39.1261 24.4526 39.2099 24.3808C39.5091 24.1414 39.8083 23.914 40.1076 23.6985C40.1794 23.6387 40.2632 23.5908 40.3469 23.531C40.5744 23.3634 40.8137 23.2078 41.0531 23.0642C41.1608 22.9924 41.2805 22.9205 41.3882 22.8607C41.6037 22.729 41.8072 22.6094 42.0226 22.4897C42.1423 22.4179 42.262 22.358 42.3817 22.2982C42.6091 22.1785 42.8365 22.0708 43.0639 21.963C43.1716 21.9152 43.2674 21.8673 43.3751 21.8194C43.7102 21.6758 44.0453 21.5322 44.3924 21.4125C44.4283 21.4125 44.4523 21.3885 44.4882 21.3766C44.7994 21.2688 45.1225 21.1611 45.4457 21.0773C45.5654 21.0414 45.6851 21.0175 45.8048 20.9936C46.0441 20.9337 46.2955 20.8739 46.5468 20.826C46.6785 20.8021 46.8101 20.7781 46.9538 20.7542C47.2051 20.7183 47.4565 20.6824 47.7078 20.6465C47.8395 20.6345 47.9592 20.6106 48.0908 20.6106C48.402 20.5866 48.7252 20.5746 49.0483 20.5627C49.1201 20.5627 49.18 20.5627 49.2518 20.5627C49.2638 20.5627 49.2757 20.5627 49.2877 20.5627C49.6587 20.5627 50.0298 20.5866 50.4128 20.6106C50.5205 20.6106 50.6282 20.6345 50.7359 20.6465C51.0352 20.6704 51.3344 20.7183 51.6456 20.7542C51.7653 20.7781 51.885 20.7901 52.0046 20.814C52.3876 20.8858 52.7706 20.9576 53.1537 21.0534C53.1776 21.0534 53.2135 21.0654 53.2374 21.0773C53.6563 21.1851 54.0753 21.3047 54.5061 21.4484C54.6258 21.4843 54.7455 21.5322 54.8772 21.5681C55.2003 21.6758 55.5355 21.8074 55.8586 21.9391C55.9903 21.987 56.11 22.0348 56.2416 22.0947C56.6845 22.2862 57.1393 22.4777 57.5941 22.7051C64.2608 25.9726 68.7132 31.598 73.6922 36.7326C73.788 36.8284 73.8598 36.9241 73.9436 36.9959C73.9915 37.0438 74.0393 37.0917 74.0872 37.1276C74.1112 37.1515 74.1351 37.1635 74.159 37.1755C74.2069 37.1994 74.2548 37.2234 74.3146 37.2353C74.3505 37.2353 74.3864 37.2473 74.4223 37.2593C74.5061 37.2593 74.6019 37.2593 74.7216 37.2473C74.7455 37.0678 74.7814 36.8643 74.8173 36.6489C74.8891 36.218 74.9729 35.7153 75.0806 35.1886C75.1884 34.65 75.3081 34.0755 75.4517 33.4891C75.6192 32.8308 75.7988 32.1366 76.0142 31.4663C76.2536 30.7243 76.5169 30.0061 76.8161 29.3239C76.8879 29.1444 76.9717 28.9768 77.0555 28.8092C77.2709 28.3664 77.4984 27.9475 77.7497 27.5764C78.0489 27.1336 78.3721 26.7386 78.7192 26.4394C79.0663 26.1402 79.4373 25.9008 79.8443 25.7811C80.0836 25.7093 80.323 25.6495 80.5504 25.6135C80.6222 25.6016 80.694 25.6016 80.7659 25.5896C80.9215 25.5657 81.0651 25.5537 81.2087 25.5537C81.2446 25.5537 81.2805 25.5537 81.3045 25.5537C81.3643 25.5537 81.4241 25.5537 81.484 25.5657C81.5558 25.5657 81.6396 25.5657 81.7114 25.5776C81.8071 25.5776 81.9029 25.6016 81.9867 25.6255C82.0585 25.6375 82.1183 25.6495 82.1902 25.6734C82.2859 25.6973 82.3697 25.7332 82.4535 25.7691C82.5133 25.7931 82.5732 25.805 82.633 25.841C82.7288 25.8888 82.8125 25.9367 82.8963 25.9846C82.9442 26.0085 82.9921 26.0325 83.0399 26.0684C83.1477 26.1402 83.2434 26.224 83.3511 26.3077C83.3751 26.3197 83.387 26.3436 83.411 26.3556C83.5307 26.4633 83.6384 26.5711 83.7461 26.7027C83.7701 26.7266 83.794 26.7626 83.8179 26.7985C83.9017 26.8942 83.9735 26.99 84.0453 27.0977C84.0812 27.1456 84.1052 27.1934 84.1411 27.2533C84.2009 27.349 84.2608 27.4448 84.3206 27.5405C84.3565 27.6004 84.3805 27.6602 84.4164 27.7201C84.4642 27.8158 84.5121 27.9116 84.56 28.0193C84.5959 28.0911 84.6198 28.1629 84.6438 28.2228C84.6917 28.3305 84.7276 28.4262 84.7635 28.534C84.7874 28.6058 84.8113 28.6776 84.8472 28.7614C84.8831 28.8691 84.9191 28.9768 84.955 29.0965C84.9789 29.1803 85.0028 29.2521 85.0268 29.3359C85.0627 29.4556 85.0866 29.5633 85.1225 29.683C85.1465 29.7667 85.1584 29.8505 85.1824 29.9343C85.2063 30.054 85.2422 30.1857 85.2662 30.3053C85.2781 30.3891 85.3021 30.4729 85.314 30.5447C85.338 30.6764 85.3619 30.808 85.3858 30.9397C85.3978 31.0235 85.4098 31.1073 85.4218 31.1791C85.4457 31.3227 85.4577 31.4544 85.4816 31.598C85.4816 31.6698 85.5055 31.7536 85.5055 31.8254C85.5295 31.981 85.5414 32.1486 85.5534 32.3041C85.5534 32.364 85.5654 32.4238 85.5654 32.4956C85.5773 32.6872 85.6013 32.8906 85.6133 33.0821C85.6133 33.1061 85.6133 33.142 85.6133 33.1659C85.6252 33.3933 85.6372 33.6327 85.6492 33.8601C85.6492 33.8601 85.6492 33.8601 85.6492 33.8721C85.6492 34.0875 85.6611 34.3149 85.6611 34.5304C85.6611 34.6022 85.6611 34.662 85.6611 34.7338C85.6611 34.8894 85.6611 35.045 85.6611 35.2006C85.6611 35.2844 85.6611 35.3562 85.6611 35.44C85.6611 35.5836 85.6611 35.7272 85.6611 35.8589C85.6611 35.9427 85.6611 36.0265 85.6611 36.1103C85.6611 36.2419 85.6611 36.3736 85.6611 36.5052C85.6611 36.601 85.6611 36.6848 85.6611 36.7685C85.6611 36.8882 85.6611 37.0079 85.6492 37.1276C85.6492 37.2234 85.6492 37.3071 85.6372 37.3909C85.6372 37.5106 85.6252 37.6183 85.6133 37.738C85.6133 37.8218 85.6133 37.9056 85.6013 37.9894C85.6013 38.0971 85.5893 38.2168 85.5773 38.3245C85.5773 38.4083 85.5773 38.4801 85.5654 38.5639C85.5654 38.6716 85.5534 38.7793 85.5414 38.8751C85.5414 38.9469 85.5295 39.0307 85.5175 39.1025C85.5175 39.1982 85.5055 39.294 85.4936 39.3897C85.4936 39.4615 85.4816 39.5334 85.4696 39.6052C85.4696 39.6889 85.4577 39.7608 85.4457 39.8445C85.4457 39.9164 85.4337 40.0001 85.4218 40.072C85.4218 40.1438 85.4098 40.2036 85.3978 40.2635C85.3978 40.3353 85.3858 40.4071 85.3739 40.4789C85.3739 40.5387 85.3619 40.5986 85.3499 40.6584C85.3499 40.7183 85.338 40.7901 85.326 40.838C85.2302 41.6518 85.1106 42.4657 84.9669 43.2676C84.6797 44.8834 84.3206 46.4992 83.9376 48.0911C83.7461 48.893 83.5426 49.683 83.3511 50.4729C83.8897 51.4783 84.3924 52.4956 84.8712 53.513C85.1106 54.0277 85.338 54.5423 85.5534 55.045C85.9963 56.0743 86.3912 57.1037 86.7383 58.145C87.253 59.7009 87.648 61.2688 87.8873 62.8487C88.1147 64.4047 88.1866 65.9726 88.0669 67.5405C88.019 68.0911 87.9592 68.6417 87.8634 69.1922C87.8275 69.4196 87.7677 69.6351 87.7198 69.8625C89.0603 68.6776 90.2931 67.4089 91.4182 66.0564C91.4182 60.2395 89.2518 54.7338 86.858 50.042C87.5642 47.1815 88.2584 44.2371 88.6055 41.197C89.2638 35.5238 89.3835 28.0193 86.1878 24.4286C84.9071 22.9924 83.2195 22.2264 81.3164 22.2264C80.5265 22.2264 79.7126 22.358 78.8748 22.6213C76.8999 23.2437 74.4463 25.2425 72.7467 30.8799C68.8449 26.7266 64.7395 22.5136 59.0902 19.7488C55.7509 18.1091 52.4595 17.2832 49.3236 17.2832C38.5875 17.2832 31.7653 26.3915 26.3912 35.3801C24.3446 31.3706 21.3763 27.4328 17.0914 27.4328C16.876 27.4328 16.6486 27.4328 16.4212 27.4687C14.3625 27.6722 12.651 28.7374 11.5738 30.4609C10.2692 32.5675 8.78501 37.9654 13.5367 50.4968C13.8479 51.3107 14.3865 52.4597 15.0088 53.7763C15.6312 55.0929 16.7802 57.5226 16.9957 58.3365C16.9957 58.9828 16.6366 60.5746 16.3853 61.6518C16.0501 63.124 15.703 64.6441 15.6192 65.9606C15.4756 68.2108 15.5474 70.3532 15.8347 72.364C17.0555 73.2138 18.3362 74.0157 19.6767 74.7578C18.9825 72.1964 18.7072 69.3239 18.9107 66.1761L18.8987 66.1521Z" fill="white"/>
<path d="M13.6087 37.4626C13.5608 36.96 13.5488 36.4692 13.5369 36.0024C13.5369 36.4692 13.5608 36.96 13.6087 37.4626Z" fill="white"/>
<path d="M17.3191 30.7603C17.4507 30.7603 17.5824 30.7842 17.7141 30.8081C17.5824 30.7842 17.4507 30.7722 17.3191 30.7603Z" fill="white"/>
<path d="M14.3986 42.1067C14.2789 41.5921 14.1592 41.0654 14.0635 40.5508C14.1712 41.0774 14.2789 41.5921 14.3986 42.1067Z" fill="white"/>
<path d="M18.1328 30.9155C18.2645 30.9514 18.3842 30.9993 18.5038 31.0472C18.3842 30.9873 18.2525 30.9514 18.1328 30.9155Z" fill="white"/>
<path d="M15.1762 45.0627C15.0446 44.5959 14.9009 44.1172 14.7693 43.6265C14.9009 44.1172 15.0326 44.6079 15.1762 45.0627Z" fill="white"/>
<path d="M16.3136 48.546C16.0982 47.9595 15.8468 47.2175 15.5835 46.3916C15.8468 47.2294 16.1101 47.9595 16.3136 48.546Z" fill="white"/>
<path d="M84.5125 27.9595C84.5484 28.0313 84.5723 28.1031 84.5962 28.1629C84.5723 28.0911 84.5364 28.0193 84.5125 27.9595Z" fill="white"/>
<path d="M84.2727 27.4688C84.2727 27.4688 84.3325 27.5884 84.3684 27.6483C84.3325 27.5884 84.3086 27.5286 84.2727 27.4688Z" fill="white"/>
<path d="M84.7275 28.4741C84.7515 28.5459 84.7754 28.6177 84.8113 28.7015C84.7874 28.6297 84.7634 28.5459 84.7275 28.4741Z" fill="white"/>
<path d="M84.0098 27.0376C84.0098 27.0376 84.0696 27.1333 84.1055 27.1932C84.0696 27.1453 84.0457 27.0855 84.0098 27.0376Z" fill="white"/>
<path d="M83.3035 26.2476C83.3035 26.2476 83.3394 26.2835 83.3633 26.2954C83.3394 26.2835 83.3274 26.2595 83.3035 26.2476Z" fill="white"/>
<path d="M83.7104 26.6426C83.7104 26.6426 83.7583 26.7024 83.7823 26.7383C83.7583 26.7144 83.7344 26.6785 83.7104 26.6426Z" fill="white"/>
<path d="M85.2183 30.2334C85.2302 30.3172 85.2542 30.401 85.2661 30.4728C85.2542 30.389 85.2302 30.3052 85.2183 30.2334Z" fill="white"/>
<path d="M85.3262 30.8799C85.3381 30.9637 85.3501 31.0474 85.3621 31.1193C85.3501 31.0355 85.3381 30.9517 85.3262 30.8799Z" fill="white"/>
<path d="M79.8206 25.7569C80.0599 25.6851 80.2993 25.6253 80.5267 25.5894C80.2993 25.6253 80.0719 25.6851 79.8206 25.7569Z" fill="white"/>
<path d="M75.4399 33.4768C75.6075 32.8186 75.787 32.1244 76.0025 31.4541C75.787 32.1363 75.5955 32.8186 75.4399 33.4768Z" fill="white"/>
<path d="M74.147 37.1753C74.147 37.1753 74.2427 37.2232 74.3026 37.2351C74.2427 37.2232 74.1948 37.1992 74.147 37.1753Z" fill="white"/>
<path d="M74.8054 36.637C74.8772 36.2061 74.961 35.7034 75.0687 35.1768C74.961 35.7154 74.8772 36.2061 74.8054 36.637Z" fill="white"/>
<path d="M80.7419 25.5657C80.8975 25.5418 81.0412 25.5298 81.1848 25.5298C81.0412 25.5298 80.8975 25.5537 80.7419 25.5657Z" fill="white"/>
<path d="M82.8604 25.9365C82.8604 25.9365 82.9561 25.9844 83.004 26.0203C82.9561 25.9964 82.9082 25.9724 82.8604 25.9365Z" fill="white"/>
<path d="M81.9509 25.5894C82.0227 25.6013 82.0826 25.6133 82.1544 25.6372C82.0946 25.6133 82.0227 25.6013 81.9509 25.5894Z" fill="white"/>
<path d="M82.4175 25.7212C82.4175 25.7212 82.5372 25.7571 82.597 25.793C82.5372 25.7691 82.4773 25.7451 82.4175 25.7212Z" fill="white"/>
<path d="M81.4482 25.5298C81.5201 25.5298 81.6038 25.5298 81.6756 25.5418C81.6038 25.5418 81.532 25.5418 81.4482 25.5298Z" fill="white"/>
<path d="M85.5056 32.2563C85.5056 32.3162 85.5176 32.376 85.5176 32.4478C85.5176 32.388 85.5056 32.3282 85.5056 32.2563Z" fill="white"/>
<path d="M85.3379 40.2275C85.3379 40.2994 85.3259 40.3712 85.314 40.443C85.314 40.3712 85.3259 40.2994 85.3379 40.2275Z" fill="white"/>
<path d="M85.4216 39.3535C85.4216 39.4253 85.4097 39.4971 85.3977 39.569C85.3977 39.4971 85.4097 39.4253 85.4216 39.3535Z" fill="white"/>
<path d="M85.4695 38.8389C85.4695 38.9107 85.4575 38.9945 85.4456 39.0663C85.4456 38.9945 85.4575 38.9226 85.4695 38.8389Z" fill="white"/>
<path d="M85.386 39.8086C85.386 39.8804 85.374 39.9642 85.3621 40.036C85.3621 39.9642 85.374 39.8804 85.386 39.8086Z" fill="white"/>
<path d="M74.0753 37.1273C74.0753 37.1273 73.9795 37.0435 73.9316 36.9956C73.9795 37.0435 74.0274 37.0914 74.0753 37.1273Z" fill="white"/>
<path d="M84.8235 53.4888C84.3448 52.4714 83.8301 51.4541 83.3035 50.4487C83.5069 49.6588 83.6984 48.8568 83.8899 48.0669C83.6984 48.8688 83.495 49.6588 83.3035 50.4487C83.8421 51.4541 84.3448 52.4714 84.8235 53.4888Z" fill="white"/>
<path d="M74.7099 37.2474C74.5902 37.2713 74.4944 37.2713 74.4106 37.2593C74.4346 37.2593 74.4466 37.2713 74.4705 37.2713C74.5423 37.2713 74.6141 37.2713 74.7099 37.2354V37.2474Z" fill="white"/>
<path d="M84.9189 43.2318C85.0626 42.4179 85.1823 41.616 85.278 40.8021C85.278 40.7422 85.29 40.6824 85.3019 40.6226C85.3019 40.6824 85.29 40.7542 85.278 40.8021C85.1823 41.616 85.0626 42.4299 84.9189 43.2318Z" fill="white"/>
<path d="M85.5054 38.2886C85.5054 38.3724 85.5054 38.4442 85.4934 38.528C85.4934 38.4442 85.4934 38.3724 85.5054 38.2886Z" fill="white"/>
<path d="M85.5776 37.0918C85.5776 37.1875 85.5776 37.2713 85.5657 37.3551C85.5657 37.2713 85.5657 37.1756 85.5776 37.0918Z" fill="white"/>
<path d="M85.5415 37.7021C85.5415 37.7859 85.5415 37.8697 85.5295 37.9535C85.5295 37.8697 85.5295 37.7859 85.5415 37.7021Z" fill="white"/>
<path d="M24.3923 38.9829C24.4522 39.1265 24.512 39.2582 24.5719 39.4018C24.512 39.2702 24.4522 39.1265 24.3923 38.9829Z" fill="white"/>
<path d="M27.0974 40.6704C27.1692 40.5387 27.241 40.407 27.3248 40.2754C27.253 40.407 27.1812 40.5387 27.0974 40.6704Z" fill="white"/>
<path d="M25.6135 41.939C25.7212 42.2262 25.829 42.4895 25.9247 42.7169C25.829 42.4776 25.7212 42.2142 25.6135 41.939Z" fill="white"/>
<path d="M25.2065 40.9097C25.2544 41.0174 25.3023 41.1371 25.3382 41.2328C25.3023 41.1251 25.2544 41.0174 25.2065 40.9097Z" fill="white"/>
<path d="M26.4751 41.7474C26.511 41.6756 26.5589 41.6038 26.5948 41.5439C26.5589 41.6158 26.511 41.6876 26.4751 41.7474Z" fill="white"/>
<path d="M29.2161 37.0199C29.2759 36.9242 29.3358 36.8284 29.3956 36.7207C29.3358 36.8165 29.2759 36.9122 29.2161 37.0199Z" fill="white"/>
<path d="M23.9375 37.9771C24.0093 38.1207 24.0811 38.2643 24.141 38.4079C24.0692 38.2643 24.0093 38.1207 23.9375 37.9771Z" fill="white"/>
<path d="M21.6995 34.0156C21.7952 34.1473 21.891 34.2909 21.9867 34.4345C21.891 34.2909 21.7952 34.1593 21.6995 34.0156Z" fill="white"/>
<path d="M24.8115 39.9639C24.8594 40.0955 24.9192 40.2272 24.9791 40.3469C24.9312 40.2272 24.8714 40.0955 24.8115 39.9639Z" fill="white"/>
<path d="M21.0532 33.166C21.1609 33.2857 21.2567 33.4174 21.3644 33.549C21.2687 33.4174 21.1609 33.2977 21.0532 33.166Z" fill="white"/>
<path d="M19.6526 31.7656C19.7723 31.8614 19.88 31.9452 19.9997 32.0409C19.892 31.9452 19.7723 31.8494 19.6526 31.7656Z" fill="white"/>
<path d="M22.3098 34.9492C22.4056 35.0928 22.4893 35.2365 22.5731 35.3921C22.4893 35.2484 22.3936 35.1048 22.3098 34.9492Z" fill="white"/>
<path d="M32.1841 32.3517C32.232 32.2918 32.2679 32.232 32.3157 32.1602C32.2679 32.22 32.232 32.2798 32.1841 32.3517Z" fill="white"/>
<path d="M22.8965 35.9307C22.9803 36.0743 23.064 36.2299 23.1478 36.3735C23.064 36.2179 22.9803 36.0743 22.8965 35.9307Z" fill="white"/>
<path d="M23.4351 36.9478C23.5069 37.0914 23.5907 37.247 23.6625 37.3906C23.5907 37.247 23.5188 37.0914 23.4351 36.9478Z" fill="white"/>
<path d="M43.0518 21.9747C43.1595 21.9268 43.2552 21.8789 43.3629 21.8311C43.2552 21.8789 43.1475 21.9268 43.0518 21.9747Z" fill="white"/>
<path d="M46.5347 20.8379C46.6663 20.814 46.798 20.7901 46.9416 20.7661C46.81 20.7901 46.6783 20.814 46.5347 20.8379Z" fill="white"/>
<path d="M45.4458 21.0892C45.5655 21.0532 45.6852 21.0293 45.8049 21.0054C45.6852 21.0293 45.5655 21.0652 45.4458 21.0892Z" fill="white"/>
<path d="M47.6958 20.6585C47.8275 20.6465 47.9471 20.6226 48.0788 20.6226C47.9471 20.6226 47.8155 20.6465 47.6958 20.6585Z" fill="white"/>
<path d="M44.3926 21.4241C44.3926 21.4241 44.4524 21.4002 44.4883 21.3882C44.4524 21.3882 44.4285 21.4121 44.3926 21.4241Z" fill="white"/>
<path d="M54.4944 21.436C54.6141 21.4719 54.7338 21.5198 54.8654 21.5557C54.7457 21.5078 54.626 21.4719 54.4944 21.436Z" fill="white"/>
<path d="M53.1418 21.0532C53.1418 21.0532 53.2017 21.0652 53.2256 21.0772C53.2017 21.0772 53.1658 21.0652 53.1418 21.0532Z" fill="white"/>
<path d="M50.4009 20.6104C50.5086 20.6104 50.6163 20.6343 50.724 20.6463C50.6163 20.6463 50.5086 20.6223 50.4009 20.6104Z" fill="white"/>
<path d="M42.0107 22.5133C42.1304 22.4415 42.2501 22.3816 42.3698 22.3218C42.2501 22.3816 42.1304 22.4534 42.0107 22.5133Z" fill="white"/>
<path d="M36.2893 27.1337C36.3731 27.0379 36.4569 26.9541 36.5526 26.8584C36.4688 26.9541 36.3851 27.0379 36.2893 27.1337Z" fill="white"/>
<path d="M35.3801 28.1507C35.3801 28.1507 35.4519 28.0669 35.4878 28.019C35.4519 28.0669 35.416 28.1028 35.3801 28.1507Z" fill="white"/>
<path d="M41.0291 23.0877C41.1368 23.0159 41.2565 22.9441 41.3642 22.8843C41.2565 22.9561 41.1368 23.0159 41.0291 23.0877Z" fill="white"/>
<path d="M38.9587 24.6083C39.0425 24.5484 39.1143 24.4766 39.1981 24.4048C39.1143 24.4646 39.0425 24.5364 38.9587 24.6083Z" fill="white"/>
<path d="M40.0959 23.7223C40.1678 23.6624 40.2515 23.6145 40.3353 23.5547C40.2515 23.6145 40.1797 23.6624 40.0959 23.7223Z" fill="white"/>
<path d="M38.001 25.4459C38.1087 25.3502 38.2044 25.2544 38.3122 25.1587C38.2044 25.2544 38.0967 25.3502 38.001 25.4459Z" fill="white"/>
<path d="M37.1274 26.2838C37.2352 26.1761 37.3309 26.0804 37.4386 25.9727C37.3309 26.0684 37.2352 26.1761 37.1274 26.2838Z" fill="white"/>
<path d="M60.9334 53.5965C61.7832 51.5139 60.8257 50.0178 62.3817 48.0309C64.4882 45.3499 68.9885 45.5893 70.6641 48.6414C71.3583 49.922 71.2506 52.5432 72.615 52.8424C74.8053 53.3212 73.8598 49.4911 73.405 48.3062C70.9394 42.0226 61.7114 42.226 59.2817 48.3541C58.5516 50.2093 57.7736 54.5779 60.9215 53.5965H60.9334Z" fill="white"/>
<path d="M49.3836 54.5422C51.0472 53.5129 48.5697 48.9408 47.5044 47.8396C45.8886 46.164 43.3273 45.5057 41.0652 45.8767C38.073 46.3794 35.2842 49.4674 34.997 52.4716C34.8533 54.0036 34.9252 57.0437 37.2352 55.7271C38.432 54.5183 36.6726 51.2149 39.6768 49.2759C42.2142 47.6481 45.5176 48.5458 46.8342 51.2508C47.3848 52.3878 47.4326 55.7391 49.3836 54.5302V54.5422Z" fill="white"/>
<path d="M56.9956 64.2013C58.6712 63.9141 63.5545 60.9338 62.0704 58.947L61.2565 58.5161C58.4677 60.5389 57.0075 62.5496 53.1296 61.7357C51.5856 61.4126 49.3594 59.0427 48.3301 60.3234C47.0494 61.9153 51.1188 63.8782 52.4474 64.1295C53.764 64.3809 55.691 64.4287 57.0075 64.2013H56.9956Z" fill="white"/>
</svg>
