<?xml version="1.0" encoding="UTF-8"?>
<svg id="Layer_1" data-name="Layer 1" xmlns="http://www.w3.org/2000/svg" viewBox="0 0 292.55 68.19">
  <defs>
    <style>
      .cls-1 {
        fill: #5bbb70;
      }

      .cls-2 {
        fill: #5abb6f;
      }

      .cls-3 {
        fill: #111826;
      }
    </style>
  </defs>
  <g>
    <path class="cls-3" d="M95.87,39.76c0-9.84,6.3-15.48,18.42-15.48,11.1,0,16.2,4.62,16.2,12.12,0,1.92-.18,3.9-.48,5.88h-19.08c.42,4.2,2.46,5.58,7.02,5.58,3.24,0,7.2-.96,9.9-2.4l.3.18-.48,7.38c-3.42,1.62-8.4,2.4-12.66,2.4-12.36,0-19.14-5.22-19.14-15.66ZM117.05,37.3c.18-5.52-.66-7.8-2.88-7.8-1.98,0-3,1.8-3.24,7.8h6.12Z"/>
    <path class="cls-3" d="M151.01,41.86l-1.74,1.38v11.64h-16.26c.66-5.94.96-12,.96-19.32,0-6.84-.36-13.62-1.02-20.88h16.32v23.22c3.12-2.58,4.8-6.42,5.1-13.02h16.26l.12.36c-1.32,1.02-2.22,1.92-3.66,3.48l-4.14,4.5,4.14,11.28c1.32,3.54,2.7,6.72,4.86,10.14l-.12.24h-17.34l-3.48-13.02Z"/>
    <path class="cls-3" d="M173.45,17.63c0-3.12,2.34-4.92,8.64-4.92s8.64,1.8,8.64,4.92-2.4,4.92-8.64,4.92-8.64-1.86-8.64-4.92ZM174.77,40.66c0-5.1-.36-11.1-1.02-15.78h16.32v14.76c0,5.76.3,10.74.9,15.24h-16.92c.48-4.74.72-9.9.72-14.22Z"/>
    <path class="cls-3" d="M193.31,40c0-10.68,5.16-15.54,12.54-15.54,4.26,0,7.2,1.68,9.24,3.96v-2.1c0-3.9-.24-7.86-.66-11.64h16.02v21.06c0,7.92.3,13.56.9,19.14h-15.42l-.36-3.18c-1.8,2.22-4.62,3.78-8.76,3.78-8.1,0-13.5-5.34-13.5-15.48ZM212.69,48.46c.96,0,1.8-.42,2.4-1.14v-13.92c-.72-.84-1.5-1.26-2.52-1.26-2.34,0-3.42,2.04-3.42,8.34,0,5.88,1.2,7.98,3.54,7.98Z"/>
    <path class="cls-3" d="M234.47,17.63c0-3.12,2.34-4.92,8.64-4.92s8.64,1.8,8.64,4.92-2.4,4.92-8.64,4.92-8.64-1.86-8.64-4.92Z"/>
    <path class="cls-3" d="M235.79,40.66c0-5.1-.36-11.1-1.02-15.78h16.32v14.76c0,5.76.3,10.74.9,15.24h-16.92c.48-4.74.72-9.9.72-14.22Z"/>
    <path class="cls-3" d="M254.33,39.7c0-9.72,7.08-15.42,19.26-15.42s18.96,5.7,18.96,15.42-6.78,15.78-18.96,15.78-19.26-6.18-19.26-15.78ZM276.77,39.88c0-7.5-.9-10.62-3.3-10.62-2.58,0-3.36,3.12-3.36,10.68s.84,10.56,3.36,10.56,3.3-3.12,3.3-10.62Z"/>
  </g>
  <g>
    <path class="cls-3" d="M39.22,17.35c.21-.03.42-.06.63-.09-.21.02-.42.05-.63.09Z"/>
    <path class="cls-3" d="M21.66,35.69c.15-.27.31-.54.46-.81-.15.27-.31.54-.46.81Z"/>
    <path class="cls-3" d="M41.17,17.18s-.02,0-.03,0c.32,0,.64.01.97.04-.32-.02-.63-.04-.94-.04Z"/>
    <path class="cls-3" d="M23.35,32.72c.13-.23.27-.46.4-.69-.14.23-.27.46-.4.69Z"/>
    <path class="cls-3" d="M23.88,31.82c.17-.3.35-.6.53-.89-.18.3-.35.6-.53.89Z"/>
    <path class="cls-3" d="M42.37,17.25c.25.02.5.06.76.09-.26-.04-.51-.07-.76-.09Z"/>
    <path class="cls-3" d="M26.31,27.89c.19-.29.39-.58.58-.87-.2.29-.39.58-.58.87Z"/>
    <path class="cls-3" d="M37.17,17.87c.26-.09.53-.18.8-.25-.27.07-.54.16-.8.25Z"/>
    <path class="cls-3" d="M17.85,28.03c.1.13.19.26.29.4-.09-.13-.19-.27-.29-.4Z"/>
    <path class="cls-3" d="M43.43,17.39c.32.06.64.12.96.2-.33-.08-.65-.14-.96-.2Z"/>
    <path class="cls-3" d="M17.29,27.36c.1.11.2.23.3.35-.1-.12-.2-.24-.3-.35Z"/>
    <path class="cls-3" d="M38.26,17.55c.2-.05.41-.1.62-.14-.21.04-.41.09-.62.14Z"/>
    <path class="cls-3" d="M16.1,26.3c.11.07.22.16.32.24-.11-.08-.21-.17-.32-.24Z"/>
    <path class="cls-3" d="M14.8,25.74c.12.02.23.06.35.1-.12-.04-.23-.07-.35-.1Z"/>
    <path class="cls-3" d="M15.46,25.95c.11.05.23.11.34.17-.11-.06-.22-.12-.34-.17Z"/>
    <path class="cls-3" d="M25.73,28.79c.13-.21.27-.41.4-.62-.13.21-.27.41-.4.62Z"/>
    <path class="cls-3" d="M36.23,18.24c.28-.12.56-.24.85-.34-.29.1-.57.22-.85.34Z"/>
    <path class="cls-3" d="M14.25,25.67c-.09,0-.19,0-.28.01.17-.02.34,0,.5.01-.07,0-.15-.03-.22-.03Z"/>
    <path class="cls-3" d="M62.72,29.39c.09-.45.19-.93.31-1.42-.12.49-.23.97-.31,1.42Z"/>
    <path class="cls-3" d="M61.89,31.02s.04.03.06.04c-.02-.01-.04-.03-.06-.04Z"/>
    <path class="cls-3" d="M44.47,17.61c.35.09.7.19,1.06.31-.36-.12-.71-.22-1.06-.31Z"/>
    <path class="cls-3" d="M22.82,33.65c.11-.19.22-.38.33-.58-.11.19-.22.38-.33.58Z"/>
    <path class="cls-3" d="M16.71,26.77c.11.09.21.2.31.3-.1-.1-.21-.21-.31-.3Z"/>
    <path class="cls-3" d="M45.84,18.02c.27.09.55.2.82.31-.28-.11-.55-.21-.82-.31Z"/>
    <path class="cls-3" d="M29,24.2c.19-.23.38-.46.57-.68-.19.22-.38.45-.57.68Z"/>
    <path class="cls-3" d="M20.87,33.71c.07.16.13.31.19.47-.06-.15-.12-.31-.19-.47Z"/>
    <path class="cls-3" d="M29.65,23.42c.22-.25.44-.5.67-.74-.23.24-.45.49-.67.74Z"/>
    <path class="cls-3" d="M21.17,34.45c.08.21.16.4.23.58-.07-.19-.15-.38-.23-.58Z"/>
    <path class="cls-3" d="M22.22,34.71c.14-.24.28-.49.42-.73-.14.25-.28.49-.42.73Z"/>
    <path class="cls-3" d="M25.15,29.71c.12-.2.25-.4.37-.59-.12.2-.25.4-.37.59Z"/>
    <path class="cls-3" d="M30.54,22.45c.16-.17.32-.33.48-.49-.16.16-.32.33-.48.49Z"/>
    <path class="cls-3" d="M20.54,32.92c.07.16.13.32.2.47-.07-.16-.13-.31-.2-.47Z"/>
    <path class="cls-3" d="M27,26.87c.16-.24.33-.47.49-.7-.17.23-.33.47-.49.7Z"/>
    <path class="cls-3" d="M63.5,26.28c.2-.62.42-1.22.67-1.79-.25.57-.47,1.17-.67,1.79Z"/>
    <path class="cls-3" d="M28.35,25.02c.14-.18.28-.36.42-.54-.14.18-.28.36-.42.54Z"/>
    <path class="cls-3" d="M27.7,25.88c.14-.19.27-.37.41-.56-.14.18-.28.37-.41.56Z"/>
    <path class="cls-3" d="M16.82,49.92c.09-.56.14-1.06.11-1.46.03.4-.02.9-.11,1.46Z"/>
    <path class="cls-3" d="M18.87,29.57c.09.15.17.3.26.46-.09-.15-.17-.31-.26-.46Z"/>
    <path class="cls-3" d="M19.33,30.39c.08.16.17.32.25.48-.08-.16-.16-.32-.25-.48Z"/>
    <path class="cls-3" d="M34.57,19.12c.18-.11.35-.21.53-.31-.18.1-.36.2-.53.31Z"/>
    <path class="cls-3" d="M33.7,19.69c.19-.14.39-.27.59-.39-.2.13-.39.26-.59.39Z"/>
    <path class="cls-3" d="M35.4,18.65c.19-.1.38-.19.57-.28-.19.09-.38.18-.57.28Z"/>
    <path class="cls-3" d="M18.37,28.77c.09.14.18.29.27.43-.09-.14-.18-.29-.27-.43Z"/>
    <path class="cls-3" d="M32.01,21.02c.18-.16.36-.31.54-.46-.18.15-.36.3-.54.46Z"/>
    <path class="cls-3" d="M20.17,32.09c.07.16.14.32.21.48-.07-.16-.14-.32-.21-.48Z"/>
    <path class="cls-3" d="M31.28,21.7c.15-.15.31-.3.47-.44-.16.14-.31.29-.47.44Z"/>
    <path class="cls-3" d="M32.75,20.4c.25-.2.5-.39.75-.57-.25.18-.5.38-.75.57Z"/>
    <path class="cls-3" d="M19.77,31.24c.08.16.15.32.23.48-.08-.16-.15-.32-.23-.48Z"/>
    <path class="cls-3" d="M24.56,30.68c.13-.22.26-.44.4-.66-.13.22-.27.44-.4.66Z"/>
    <path class="cls-3" d="M40.17,17.23c.26-.02.53-.03.8-.04-.27,0-.54.02-.8.04Z"/>
    <path class="cls-3" d="M71.54,29.57c0,.12,0,.24,0,.35,0-.12,0-.24,0-.35Z"/>
    <path class="cls-3" d="M71.53,30.14c0,.11,0,.22,0,.33,0-.11,0-.22,0-.33Z"/>
    <path class="cls-3" d="M71.46,31.71c0,.09-.01.19-.02.28,0-.09.01-.18.02-.28Z"/>
    <path class="cls-3" d="M71.49,31.21c0,.1-.01.19-.02.29,0-.09.01-.19.02-.29Z"/>
    <path class="cls-3" d="M71.52,28.26c0,.18.01.37.01.55,0-.18,0-.37-.01-.55Z"/>
    <path class="cls-3" d="M71.51,30.69c0,.1,0,.2-.01.3,0-.1,0-.2.01-.3Z"/>
    <path class="cls-3" d="M70.86,23.98c.03.09.06.18.09.28-.03-.09-.06-.19-.09-.28Z"/>
    <path class="cls-3" d="M71.24,25.47c.02.11.04.22.06.33-.02-.11-.04-.22-.06-.33Z"/>
    <path class="cls-3" d="M71.33,26.01c.02.12.03.23.05.35-.01-.12-.03-.24-.05-.35Z"/>
    <path class="cls-3" d="M71.49,27.67c.01.19.02.39.03.58,0-.19-.02-.39-.03-.58Z"/>
    <path class="cls-3" d="M71.13,24.95c.02.1.05.21.07.31-.02-.1-.04-.21-.07-.31Z"/>
    <path class="cls-3" d="M71.45,27.11c.01.16.03.33.04.49-.01-.16-.02-.33-.04-.49Z"/>
    <path class="cls-3" d="M71.4,26.55c.02.13.03.27.04.4-.01-.13-.03-.27-.04-.4Z"/>
    <path class="cls-3" d="M71.54,28.98c0,.13,0,.26,0,.39,0-.13,0-.26,0-.39Z"/>
    <path class="cls-3" d="M62.16,31.13s-.06,0-.09-.02c.03,0,.06.01.09.02Z"/>
    <path class="cls-3" d="M73.54,56.42c.1-1.31.04-2.62-.15-3.92.19,1.3.25,2.61.15,3.92Z"/>
    <path class="cls-3" d="M61.57,30.68c.08.08.14.16.21.22-.06-.07-.13-.14-.21-.22-4.16-4.29-7.88-8.99-13.45-11.72-.38-.19-.76-.35-1.13-.51.37.16.75.32,1.13.51,5.57,2.73,9.29,7.43,13.45,11.72Z"/>
    <path class="cls-3" d="M13.03,55.09c.07-1.11.36-2.38.64-3.6.2-.9.51-2.23.51-2.77-.18-.68-1.14-2.7-1.66-3.81-.52-1.1-.97-2.05-1.23-2.74-3.96-10.47-2.73-14.98-1.64-16.74.89-1.44,2.33-2.33,4.05-2.5.19-.02.37-.03.56-.03,3.58,0,6.06,3.29,7.77,6.64,4.48-7.52,10.19-15.12,19.16-15.12h0c2.62,0,5.37.69,8.16,2.06,4.72,2.32,8.15,5.83,11.41,9.3,1.42-4.71,3.47-6.38,5.12-6.9.7-.22,1.39-.33,2.04-.33,1.59,0,3,.63,4.07,1.84,2.67,3,2.57,9.28,2.02,14.01-.3,2.54-.87,5-1.46,7.39,2,3.92,3.81,8.52,3.81,13.38,4.73-5.67,7.19-12.97,7.19-21.48C83.53,12.46,68.71,0,42.09,0S0,12.46,0,33.7c0,11.49,4.65,20.72,13.21,26.74-.24-1.68-.3-3.46-.18-5.35Z"/>
    <path class="cls-3" d="M73.25,58.36h0c.04-.19.09-.37.12-.56-.03.19-.08.37-.12.56Z"/>
    <path class="cls-3" d="M72.43,48.56c.43,1.3.76,2.61.96,3.93-.2-1.32-.53-2.63-.96-3.93Z"/>
    <path class="cls-3" d="M71.36,33.06c0,.07-.01.13-.02.2,0-.07.01-.13.02-.2Z"/>
    <path class="cls-3" d="M71.43,32.19c0,.09-.01.18-.02.26,0-.09.01-.17.02-.26Z"/>
    <path class="cls-3" d="M71.39,32.64c0,.08-.01.16-.02.24,0-.08.01-.16.02-.24Z"/>
    <path class="cls-3" d="M71.28,33.79c0,.05-.01.1-.02.15,0-.05.01-.09.02-.15Z"/>
    <path class="cls-3" d="M71.44,45.97c.37.86.7,1.72.99,2.59-.29-.87-.62-1.73-.99-2.59Z"/>
    <path class="cls-3" d="M71.32,33.45c0,.06-.01.11-.02.16,0-.05.01-.1.02-.16Z"/>
    <path class="cls-3" d="M71.01,24.45c.03.1.05.19.08.29-.02-.1-.05-.2-.08-.29Z"/>
    <path class="cls-3" d="M69.35,21.74c.09.06.17.13.26.2-.08-.07-.17-.14-.26-.2Z"/>
    <path class="cls-3" d="M69.01,21.55c.08.04.15.08.22.12-.07-.04-.14-.08-.22-.12Z"/>
    <path class="cls-3" d="M70.27,22.71c.05.08.1.16.15.24-.05-.08-.1-.16-.15-.24Z"/>
    <path class="cls-3" d="M69.66,21.97c.1.09.19.18.28.29-.09-.1-.18-.2-.28-.29Z"/>
    <path class="cls-3" d="M69.99,22.33c.07.08.13.16.19.25-.06-.09-.13-.17-.19-.25Z"/>
    <path class="cls-3" d="M68.24,21.34c.08,0,.16.02.23.04-.08-.02-.15-.03-.23-.04Z"/>
    <path class="cls-3" d="M64.37,24.06c.18-.37.37-.72.58-1.03-.21.31-.4.66-.58,1.03Z"/>
    <path class="cls-3" d="M64.95,23.03c.25-.37.52-.7.81-.95-.29.26-.56.58-.81.95Z"/>
    <path class="cls-3" d="M67.28,21.38c.06-.01.12-.01.18-.02-.06,0-.12.01-.18.02Z"/>
    <path class="cls-3" d="M67.91,21.32s-.06,0-.08,0c.08,0,.15,0,.23,0-.05,0-.1-.01-.15-.01Z"/>
    <path class="cls-3" d="M68.64,21.42c.08.02.15.05.22.08-.07-.03-.15-.06-.22-.08Z"/>
    <path class="cls-3" d="M70.69,23.53c.04.09.07.17.1.26-.03-.09-.07-.18-.1-.26Z"/>
    <path class="cls-3" d="M70.49,23.11c.04.08.08.16.12.25-.04-.09-.08-.17-.12-.25Z"/>
    <path class="cls-3" d="M73.25,58.36c.04-.19.09-.37.12-.56.08-.46.13-.92.17-1.38.1-1.31.04-2.62-.15-3.92-.2-1.32-.53-2.63-.96-3.93-.29-.87-.62-1.73-.99-2.59-.18-.43-.38-.86-.57-1.28-.4-.85-.83-1.7-1.27-2.54.17-.66.33-1.33.49-1.99.32-1.33.62-2.68.86-4.03.12-.68.22-1.35.3-2.03,0-.05.01-.1.02-.15,0-.05.01-.09.02-.15,0-.06.01-.12.02-.18,0-.05.01-.1.02-.16,0-.06.01-.13.02-.19,0-.07.01-.13.02-.2,0-.06.01-.12.02-.18,0-.08.01-.16.02-.24,0-.06.01-.12.02-.19,0-.09.01-.17.02-.26,0-.07,0-.13.01-.2,0-.09.01-.18.02-.28,0-.07,0-.14.01-.21,0-.09.01-.19.02-.29,0-.07,0-.15.01-.22,0-.1,0-.2.01-.3,0-.07,0-.15,0-.22,0-.11,0-.22,0-.33,0-.07,0-.14,0-.21,0-.12,0-.24,0-.35,0-.07,0-.13,0-.2,0-.13,0-.26,0-.39,0-.06,0-.11,0-.17,0-.18,0-.37-.01-.55,0,0,0,0,0-.01,0-.19-.02-.39-.03-.58,0-.02,0-.05,0-.07-.01-.16-.02-.33-.04-.49,0-.05-.01-.1-.01-.16-.01-.13-.03-.27-.04-.4,0-.06-.02-.13-.02-.19-.01-.12-.03-.24-.05-.35-.01-.07-.02-.14-.03-.2-.02-.11-.04-.22-.06-.33-.01-.07-.03-.14-.04-.2-.02-.1-.04-.21-.07-.31-.02-.07-.03-.14-.05-.21-.02-.1-.05-.2-.08-.29-.02-.07-.04-.13-.06-.2-.03-.09-.06-.19-.09-.28-.02-.06-.04-.13-.07-.19-.03-.09-.07-.18-.1-.26-.02-.06-.05-.12-.07-.17-.04-.09-.08-.17-.12-.25-.03-.05-.05-.1-.08-.15-.05-.08-.1-.16-.15-.24-.03-.04-.05-.09-.08-.13-.06-.09-.13-.17-.19-.25-.02-.02-.04-.05-.06-.08-.09-.1-.18-.2-.28-.29-.02-.01-.03-.03-.05-.04-.08-.07-.17-.14-.26-.2-.04-.02-.08-.04-.12-.07-.07-.04-.14-.08-.22-.12-.05-.02-.1-.04-.15-.06-.07-.03-.15-.06-.22-.08-.05-.02-.11-.03-.17-.04-.08-.02-.15-.03-.23-.04-.06,0-.12,0-.19-.01-.08,0-.15,0-.23,0-.12,0-.24.02-.37.03-.06,0-.12.01-.18.02-.19.03-.38.08-.59.14-.33.1-.65.3-.94.55s-.56.58-.81.95c-.21.31-.4.66-.58,1.03-.07.14-.14.28-.2.43-.25.57-.47,1.17-.67,1.79-.18.57-.34,1.14-.47,1.69-.12.49-.23.97-.31,1.42-.09.45-.16.86-.22,1.22-.03.18-.06.35-.08.5-.08.02-.14.03-.2.03-.02,0-.03,0-.05-.01-.03,0-.06,0-.09-.02-.05-.01-.09-.03-.13-.05-.02-.01-.05-.03-.06-.04-.04-.03-.08-.07-.12-.11-.06-.07-.13-.14-.21-.22-4.16-4.29-7.88-8.99-13.45-11.72-.38-.19-.76-.35-1.13-.51-.11-.05-.21-.09-.32-.13-.28-.11-.55-.21-.82-.31-.1-.04-.21-.07-.31-.1-.36-.12-.71-.22-1.06-.31-.03,0-.05-.01-.07-.02-.33-.08-.65-.14-.96-.2-.1-.02-.2-.03-.3-.05-.26-.04-.51-.07-.76-.09-.09,0-.18-.02-.27-.03-.33-.02-.65-.04-.97-.04-.06,0-.11,0-.17,0-.27,0-.54.02-.8.04-.11,0-.22.02-.32.03-.21.02-.42.05-.63.09-.11.02-.22.04-.34.06-.21.04-.41.09-.62.14-.1.02-.2.05-.3.07-.27.07-.54.16-.8.25-.03,0-.05.02-.08.03-.29.1-.57.22-.85.34-.09.04-.18.08-.26.12-.19.09-.38.18-.57.28-.1.05-.2.11-.3.16-.18.1-.36.2-.53.31-.09.06-.19.11-.28.17-.2.13-.39.26-.59.39-.07.05-.13.09-.2.14-.25.18-.5.38-.75.57-.07.05-.13.11-.2.17-.18.15-.36.3-.54.46-.09.08-.18.16-.26.24-.16.14-.31.29-.47.44-.09.08-.17.17-.26.26-.16.16-.32.33-.48.49-.07.08-.14.15-.22.23-.23.24-.45.49-.67.74-.03.04-.06.07-.09.11-.19.22-.38.45-.57.68-.07.09-.15.18-.22.27-.14.18-.28.36-.42.54-.08.1-.16.21-.24.31-.14.18-.28.37-.41.56-.07.1-.14.19-.21.29-.17.23-.33.47-.49.7-.04.05-.07.1-.11.16-.2.29-.39.58-.58.87-.06.09-.12.18-.18.27-.13.21-.27.41-.4.62-.07.11-.14.22-.21.33-.12.2-.25.4-.37.59-.06.1-.13.21-.19.31-.13.22-.27.44-.4.66-.05.08-.1.16-.15.25-.18.3-.35.6-.53.89-.04.07-.08.14-.12.21-.14.23-.27.46-.4.69-.07.12-.13.23-.2.35-.11.19-.22.38-.33.58-.06.11-.13.22-.19.33-.14.24-.28.49-.42.73-.03.06-.07.12-.1.17-.15.27-.31.54-.46.81-.08-.2-.17-.42-.26-.65-.07-.19-.15-.38-.23-.58-.03-.09-.07-.18-.11-.27-.06-.15-.12-.31-.19-.47-.04-.1-.09-.21-.14-.32-.07-.16-.13-.31-.2-.47-.05-.11-.1-.23-.15-.35-.07-.16-.14-.32-.21-.48-.05-.12-.11-.24-.17-.36-.08-.16-.15-.32-.23-.48-.06-.12-.12-.25-.19-.37-.08-.16-.16-.32-.25-.48-.07-.13-.14-.25-.21-.37-.09-.15-.17-.31-.26-.46-.07-.12-.15-.24-.22-.37-.09-.14-.18-.29-.27-.43-.08-.12-.16-.23-.24-.35-.09-.13-.19-.27-.29-.4-.08-.11-.17-.21-.26-.32-.1-.12-.2-.24-.3-.35-.09-.1-.18-.19-.27-.28-.1-.1-.21-.21-.31-.3-.09-.08-.19-.16-.29-.23-.11-.08-.21-.17-.32-.24-.1-.07-.2-.12-.3-.18-.11-.06-.22-.12-.34-.17-.1-.05-.21-.08-.31-.11-.12-.04-.23-.07-.35-.1-.11-.02-.22-.03-.33-.04-.17-.01-.33-.03-.5-.01-1.99.2-2.66,2.03-2.65,4.39,0,.39.02.8.06,1.22.07.84.2,1.71.37,2.58.09.44.18.87.28,1.3s.21.85.32,1.27.22.82.34,1.2.23.76.34,1.11c.22.7.44,1.31.61,1.8.09.25.17.46.23.64.08.2.18.45.3.73s.27.59.42.92c.23.49.49,1.03.75,1.58.43.91.86,1.84,1.16,2.6.24.61.41,1.12.43,1.43.03.4-.02.9-.11,1.46-.09.56-.23,1.18-.37,1.81-.14.63-.29,1.27-.41,1.88-.12.61-.22,1.18-.25,1.67-.17,2.64.05,5.03.64,7.17,6.72,3.71,15.35,5.74,25.67,5.74,13.6,0,24.12-3.57,31.15-9.83ZM49.54,40.4c2.03-5.12,9.74-5.29,11.8-.04.39.99,1.18,4.19-.66,3.79-1.14-.25-1.05-2.44-1.63-3.51-1.4-2.55-5.17-2.75-6.92-.51-1.3,1.66-.51,2.91-1.21,4.65-2.63.82-1.99-2.83-1.37-4.38ZM39.13,42.83c-1.09-2.26-3.86-3.01-5.98-1.65-2.51,1.62-1.04,4.38-2.04,5.39-1.92,1.09-1.99-1.45-1.87-2.72.24-2.5,2.57-5.09,5.07-5.51,1.89-.31,4.03.24,5.38,1.64.89.92,2.96,4.74,1.57,5.6-1.63,1-1.68-1.8-2.13-2.74ZM40.37,50.4c.86-1.07,2.72.91,4.01,1.18,3.24.68,4.46-1,6.79-2.69l.68.36c1.25,1.66-2.83,4.15-4.24,4.39-1.09.19-2.71.15-3.81-.06-1.11-.21-4.52-1.85-3.44-3.18Z"/>
    <path class="cls-2" d="M15.79,55.27c.03-.49.13-1.06.25-1.67.12-.61.27-1.25.41-1.88.14-.63.28-1.25.37-1.81.09-.56.14-1.06.11-1.46-.02-.31-.19-.82-.43-1.43-.3-.76-.73-1.69-1.16-2.6-.26-.55-.52-1.09-.75-1.58-.15-.33-.3-.64-.42-.92s-.23-.52-.3-.73c-.07-.18-.15-.39-.23-.64-.18-.49-.39-1.11-.61-1.8-.11-.35-.23-.72-.34-1.11s-.23-.79-.34-1.2-.22-.84-.32-1.27-.2-.87-.28-1.3c-.17-.87-.3-1.75-.37-2.58-.04-.42-.05-.83-.06-1.22,0-2.36.66-4.19,2.65-4.39.09,0,.19-.01.28-.01.08,0,.15.02.22.03.11,0,.22.02.33.04.12.02.23.06.35.1.11.03.21.07.31.11.11.05.23.11.34.17.1.06.2.11.3.18.11.07.22.16.32.24.1.08.19.15.29.23.11.09.21.2.31.3.09.09.18.18.27.28.1.11.2.23.3.35.09.1.17.21.26.32.1.13.19.26.29.4.08.11.16.23.24.35.09.14.18.29.27.43.08.12.15.24.22.37.09.15.17.3.26.46.07.12.14.25.21.37.08.16.17.32.25.48.06.12.13.25.19.37.08.16.15.32.23.48.06.12.12.24.17.36.07.16.14.32.21.48.05.12.1.23.15.35.07.16.13.32.2.47.04.11.09.22.14.32.07.16.13.31.19.47.04.09.08.19.11.27.08.21.16.4.23.58.09.24.18.46.26.65.15-.27.31-.54.46-.81.03-.06.07-.12.1-.17.14-.24.28-.49.42-.73.06-.11.12-.22.19-.33.11-.19.22-.38.33-.58.07-.12.13-.23.2-.35.13-.23.27-.46.4-.69.04-.07.08-.14.12-.21.17-.3.35-.6.53-.89.05-.08.1-.16.15-.25.13-.22.26-.44.4-.66.06-.1.13-.21.19-.31.12-.2.25-.4.37-.59.07-.11.14-.22.21-.33.13-.21.27-.41.4-.62.06-.09.12-.18.18-.27.19-.29.39-.58.58-.87.04-.05.07-.1.11-.16.16-.24.33-.47.49-.7.07-.1.14-.19.21-.29.14-.19.27-.37.41-.56.08-.1.16-.21.24-.31.14-.18.28-.36.42-.54.07-.09.15-.18.22-.27.19-.23.38-.46.57-.68.03-.04.06-.07.09-.11.22-.25.44-.5.67-.74.07-.08.14-.15.22-.23.16-.17.32-.33.48-.49.09-.09.17-.17.26-.26.15-.15.31-.3.47-.44.09-.08.17-.16.26-.24.18-.16.36-.31.54-.46.07-.05.13-.11.2-.17.25-.2.5-.39.75-.57.06-.05.13-.09.2-.14.19-.14.39-.27.59-.39.09-.06.19-.12.28-.17.18-.11.35-.21.53-.31.1-.06.2-.11.3-.16.19-.1.38-.19.57-.28.09-.04.17-.08.26-.12.28-.12.56-.24.85-.34.03,0,.05-.02.08-.03.26-.09.53-.18.8-.25.1-.03.2-.05.3-.07.2-.05.41-.1.62-.14.11-.02.22-.04.34-.06.21-.03.42-.06.63-.09.11-.01.21-.03.32-.03.26-.02.53-.03.8-.04.06,0,.11,0,.17,0,.01,0,.02,0,.03,0,.31,0,.62.02.94.04.09,0,.18.02.27.03.25.02.5.06.76.09.1.02.2.03.3.05.32.06.64.12.96.2.02,0,.05.01.07.02.35.09.7.19,1.06.31.1.03.2.07.31.1.27.09.55.2.82.31.11.04.21.08.32.13.37.16.75.32,1.13.51,5.57,2.73,9.29,7.43,13.45,11.72.08.08.14.16.21.22.04.04.08.08.12.11.02.02.04.03.06.04.04.02.08.04.13.05.03,0,.06.01.09.02.07,0,.15,0,.25-.01.02-.15.05-.32.08-.5.06-.36.13-.78.22-1.22.09-.45.19-.93.31-1.42.14-.55.29-1.13.47-1.69.2-.62.42-1.22.67-1.79.06-.15.13-.29.2-.43.18-.37.37-.72.58-1.03.25-.37.52-.7.81-.95s.6-.45.94-.55c.2-.06.4-.11.59-.14.06-.01.12-.01.18-.02.13-.02.25-.03.37-.03.03,0,.06,0,.08,0,.05,0,.1,0,.15.01.06,0,.13,0,.19.01.08,0,.16.02.23.04.06.01.11.02.17.04.08.02.15.05.22.08.05.02.1.03.15.06.08.04.15.08.22.12.04.02.08.04.12.07.09.06.17.13.26.2.02.01.03.03.05.04.1.09.19.18.28.29.02.02.04.05.06.08.07.08.13.16.19.25.03.04.05.08.08.13.05.08.1.16.15.24.03.05.05.1.08.15.04.08.08.16.12.25.03.06.05.12.07.17.04.09.07.17.1.26.02.06.04.12.07.19.03.09.06.18.09.28.02.07.04.13.06.2.03.1.05.19.08.29.02.07.03.14.05.21.02.1.05.21.07.31.01.07.03.14.04.2.02.11.04.22.06.33.01.07.02.14.03.2.02.12.03.23.05.35,0,.06.02.13.02.19.02.13.03.27.04.4,0,.05.01.1.01.16.01.16.03.33.04.49,0,.02,0,.05,0,.07.01.19.02.39.03.58,0,0,0,0,0,.01,0,.18.01.37.01.55,0,.06,0,.11,0,.17,0,.13,0,.26,0,.39,0,.07,0,.13,0,.2,0,.12,0,.24,0,.35,0,.07,0,.14,0,.21,0,.11,0,.22,0,.33,0,.08,0,.15,0,.22,0,.1,0,.2-.01.3,0,.08,0,.15-.01.22,0,.1-.01.19-.02.29,0,.07,0,.14-.01.21,0,.09-.01.19-.02.28,0,.07,0,.13-.01.2,0,.09-.01.18-.02.26,0,.06-.01.13-.02.19,0,.08-.01.16-.02.24,0,.06-.01.12-.02.18,0,.07-.01.13-.02.2,0,.06-.01.13-.02.19,0,.06-.01.11-.02.16,0,.06-.01.12-.02.18,0,.05-.01.1-.02.15,0,.05-.01.11-.02.15-.08.68-.18,1.36-.3,2.03-.24,1.35-.54,2.7-.86,4.03-.16.67-.33,1.33-.49,1.99.45.84.87,1.69,1.27,2.54.2.43.39.86.57,1.28.37.86.7,1.72.99,2.59.43,1.3.76,2.61.96,3.93.19,1.3.25,2.61.15,3.92-.04.46-.09.92-.17,1.38-.03.19-.08.37-.12.56,1.12-.99,2.15-2.05,3.09-3.18,0-4.86-1.81-9.46-3.81-13.38.59-2.39,1.17-4.85,1.46-7.39.55-4.74.65-11.01-2.02-14.01-1.07-1.2-2.48-1.84-4.07-1.84-.66,0-1.34.11-2.04.33-1.65.52-3.7,2.19-5.12,6.9-3.26-3.47-6.69-6.99-11.41-9.3-2.79-1.37-5.54-2.06-8.16-2.06h0c-8.97,0-14.67,7.61-19.16,15.12-1.71-3.35-4.19-6.64-7.77-6.64-.18,0-.37,0-.56.03-1.72.17-3.15,1.06-4.05,2.5-1.09,1.76-2.33,6.27,1.64,16.74.26.68.71,1.64,1.23,2.74.52,1.1,1.48,3.13,1.66,3.81,0,.54-.3,1.87-.51,2.77-.28,1.23-.57,2.5-.64,3.6-.12,1.88-.06,3.67.18,5.35,1.02.71,2.09,1.38,3.21,2-.58-2.14-.81-4.54-.64-7.17Z"/>
    <path class="cls-2" d="M11.37,31.3c-.04-.42-.05-.83-.06-1.22,0,.39.02.8.06,1.22Z"/>
    <path class="cls-2" d="M14.47,25.7c.11,0,.22.02.33.04-.11-.02-.22-.03-.33-.04Z"/>
    <path class="cls-2" d="M15.34,44.42c-.26-.55-.52-1.09-.75-1.58.23.49.49,1.03.75,1.58Z"/>
    <path class="cls-2" d="M12.03,35.18c-.1-.43-.2-.87-.28-1.3.09.44.18.87.28,1.3Z"/>
    <path class="cls-2" d="M16.45,51.73c.14-.63.28-1.25.37-1.81-.09.56-.23,1.18-.37,1.81Z"/>
    <path class="cls-2" d="M14.59,42.84c-.15-.33-.3-.64-.42-.92.12.28.27.59.42.92Z"/>
    <path class="cls-2" d="M15.15,25.83c.11.03.21.07.31.11-.1-.05-.21-.08-.31-.11Z"/>
    <path class="cls-2" d="M16.5,47.03c-.3-.76-.73-1.69-1.16-2.6.43.91.86,1.84,1.16,2.6Z"/>
    <path class="cls-2" d="M12.68,37.65c-.11-.39-.23-.79-.34-1.2.11.41.22.82.34,1.2Z"/>
    <path class="cls-2" d="M13.02,38.76c-.11-.35-.23-.72-.34-1.11.11.39.23.76.34,1.11Z"/>
    <path class="cls-2" d="M13.63,40.56c-.18-.49-.39-1.11-.61-1.8.22.7.44,1.31.61,1.8Z"/>
    <path class="cls-2" d="M15.79,55.27c.03-.49.13-1.06.25-1.67-.12.61-.22,1.18-.25,1.67Z"/>
    <path class="cls-2" d="M70.61,23.36c.03.06.05.12.07.17-.02-.06-.05-.12-.07-.17Z"/>
    <path class="cls-2" d="M70.41,22.95s.05.1.08.15c-.03-.05-.05-.1-.08-.15Z"/>
    <path class="cls-2" d="M70.79,23.79c.02.06.04.12.07.19-.02-.06-.04-.13-.07-.19Z"/>
    <path class="cls-2" d="M70.19,22.59s.05.08.08.13c-.03-.04-.05-.09-.08-.13Z"/>
    <path class="cls-2" d="M69.6,21.93s.03.03.05.04c-.02-.01-.03-.03-.05-.04Z"/>
    <path class="cls-2" d="M69.94,22.26s.04.05.06.08c-.02-.02-.04-.05-.06-.08Z"/>
    <path class="cls-2" d="M71.2,25.26c.01.07.03.14.04.2-.01-.07-.03-.14-.04-.2Z"/>
    <path class="cls-2" d="M70.95,24.26c.02.07.04.13.06.2-.02-.07-.04-.13-.06-.2Z"/>
    <path class="cls-2" d="M71.37,26.36c0,.06.02.13.02.19,0-.06-.02-.13-.02-.19Z"/>
    <path class="cls-2" d="M71.08,24.75c.02.07.03.14.05.21-.02-.07-.03-.14-.05-.21Z"/>
    <path class="cls-2" d="M71.29,25.8c.01.07.02.14.03.2-.01-.07-.02-.14-.03-.2Z"/>
    <path class="cls-2" d="M66.69,21.52c.2-.06.4-.11.59-.14-.19.03-.38.08-.59.14Z"/>
    <path class="cls-2" d="M63.03,27.97c.14-.55.29-1.13.47-1.69-.18.57-.34,1.14-.47,1.69Z"/>
    <path class="cls-2" d="M64.17,24.49c.06-.15.13-.29.2-.43-.07.14-.14.28-.2.43Z"/>
    <path class="cls-2" d="M61.95,31.06s.08.04.13.05c-.05-.01-.09-.03-.13-.05Z"/>
    <path class="cls-2" d="M62.5,30.61c.06-.36.13-.78.22-1.22-.09.45-.16.86-.22,1.22Z"/>
    <path class="cls-2" d="M67.46,21.36c.13-.02.25-.03.37-.03-.12,0-.24.02-.37.03Z"/>
    <path class="cls-2" d="M69.23,21.67s.08.04.12.07c-.04-.02-.08-.04-.12-.07Z"/>
    <path class="cls-2" d="M68.47,21.38c.06.01.11.02.17.04-.05-.02-.11-.03-.17-.04Z"/>
    <path class="cls-2" d="M68.86,21.49s.1.03.15.06c-.05-.02-.1-.04-.15-.06Z"/>
    <path class="cls-2" d="M68.05,21.33c.06,0,.13,0,.19.01-.06,0-.12,0-.19-.01Z"/>
    <path class="cls-2" d="M71.44,26.95c0,.05.01.1.01.16,0-.05-.01-.1-.01-.16Z"/>
    <path class="cls-2" d="M73.54,56.42c-.04.46-.09.92-.17,1.38.08-.46.13-.92.17-1.38Z"/>
    <path class="cls-2" d="M71.3,33.61c0,.06-.01.12-.02.18,0-.06.01-.12.02-.18Z"/>
    <path class="cls-2" d="M70.95,36.12c-.24,1.35-.54,2.7-.86,4.03.32-1.33.62-2.68.86-4.03Z"/>
    <path class="cls-2" d="M71.37,32.88c0,.06-.01.12-.02.18,0-.06.01-.12.02-.18Z"/>
    <path class="cls-2" d="M71.41,32.45c0,.06-.01.13-.02.19,0-.06.01-.12.02-.19Z"/>
    <path class="cls-2" d="M71.34,33.26c0,.06-.01.13-.02.19,0-.06.01-.13.02-.19Z"/>
    <path class="cls-2" d="M61.89,31.02s-.08-.07-.12-.11c.04.04.08.08.12.11Z"/>
    <path class="cls-2" d="M70.87,44.69c-.4-.85-.83-1.7-1.27-2.54.17-.66.33-1.33.49-1.99-.16.67-.33,1.33-.49,1.99.45.84.87,1.69,1.27,2.54Z"/>
    <path class="cls-2" d="M62.42,31.12c.02-.15.05-.32.08-.5-.03.18-.06.35-.08.5-.1.02-.18.02-.25.01.02,0,.03.01.05.01.06,0,.12,0,.2-.03Z"/>
    <path class="cls-2" d="M70.95,36.12c.12-.68.22-1.35.3-2.03,0-.05.01-.1.02-.15,0,.05-.01.11-.02.15-.08.68-.18,1.36-.3,2.03Z"/>
    <path class="cls-2" d="M71.54,29.93c0,.07,0,.14,0,.21,0-.07,0-.14,0-.21Z"/>
    <path class="cls-2" d="M71.44,31.99c0,.07,0,.13-.01.2,0-.07,0-.13.01-.2Z"/>
    <path class="cls-2" d="M71.52,28.25s0,0,0,.01c0,0,0,0,0-.01Z"/>
    <path class="cls-2" d="M71.49,27.6s0,.05,0,.07c0-.02,0-.05,0-.07Z"/>
    <path class="cls-2" d="M71.54,29.37c0,.07,0,.13,0,.2,0-.07,0-.13,0-.2Z"/>
    <path class="cls-2" d="M71.54,28.81c0,.06,0,.11,0,.17,0-.06,0-.11,0-.17Z"/>
    <path class="cls-2" d="M46.66,18.32c.11.04.21.08.32.13-.11-.05-.21-.09-.32-.13Z"/>
    <path class="cls-2" d="M71.5,30.99c0,.08,0,.15-.01.22,0-.07,0-.15.01-.22Z"/>
    <path class="cls-2" d="M71.47,31.5c0,.07,0,.14-.01.21,0-.07,0-.14.01-.21Z"/>
    <path class="cls-2" d="M71.52,30.46c0,.08,0,.15,0,.22,0-.07,0-.15,0-.22Z"/>
    <path class="cls-2" d="M20.38,32.57c.05.12.1.23.15.35-.05-.11-.1-.23-.15-.35Z"/>
    <path class="cls-2" d="M23.15,33.07c.07-.12.13-.23.2-.35-.07.12-.13.23-.2.35Z"/>
    <path class="cls-2" d="M22.64,33.98c.06-.11.12-.22.19-.33-.06.11-.12.22-.19.33Z"/>
    <path class="cls-2" d="M23.76,32.03c.04-.07.08-.14.12-.21-.04.07-.08.14-.12.21Z"/>
    <path class="cls-2" d="M21.4,35.04c.09.24.18.46.26.65-.08-.2-.17-.42-.26-.65Z"/>
    <path class="cls-2" d="M21.06,34.18c.04.09.08.19.11.27-.03-.09-.07-.18-.11-.27Z"/>
    <path class="cls-2" d="M22.12,34.88c.03-.06.07-.12.1-.17-.03.06-.07.12-.1.17Z"/>
    <path class="cls-2" d="M25.52,29.12c.07-.11.14-.22.21-.33-.07.11-.14.22-.21.33Z"/>
    <path class="cls-2" d="M24.41,30.93c.05-.08.1-.16.15-.25-.05.08-.1.16-.15.25Z"/>
    <path class="cls-2" d="M26.13,28.17c.06-.09.12-.18.18-.27-.06.09-.12.18-.18.27Z"/>
    <path class="cls-2" d="M24.95,30.02c.06-.1.13-.21.19-.31-.06.1-.13.21-.19.31Z"/>
    <path class="cls-2" d="M20,31.73c.06.12.12.24.17.36-.06-.12-.11-.24-.17-.36Z"/>
    <path class="cls-2" d="M18.13,28.42c.08.11.16.23.24.35-.08-.12-.16-.23-.24-.35Z"/>
    <path class="cls-2" d="M20.73,33.39c.04.11.09.22.14.32-.04-.1-.09-.21-.14-.32Z"/>
    <path class="cls-2" d="M17.59,27.71c.09.1.17.21.26.32-.08-.11-.17-.21-.26-.32Z"/>
    <path class="cls-2" d="M16.42,26.54c.1.08.19.15.29.23-.09-.08-.19-.16-.29-.23Z"/>
    <path class="cls-2" d="M17.02,27.08c.09.09.18.18.27.28-.09-.1-.18-.19-.27-.28Z"/>
    <path class="cls-2" d="M18.64,29.2c.08.12.15.24.22.37-.07-.12-.15-.24-.22-.37Z"/>
    <path class="cls-2" d="M26.89,27.03c.04-.05.07-.1.11-.16-.04.05-.07.1-.11.16Z"/>
    <path class="cls-2" d="M15.8,26.12c.1.06.2.11.3.18-.1-.07-.2-.12-.3-.18Z"/>
    <path class="cls-2" d="M19.13,30.02c.07.12.14.25.21.37-.07-.13-.14-.25-.21-.37Z"/>
    <path class="cls-2" d="M19.58,30.87c.06.12.13.25.19.37-.06-.12-.12-.25-.19-.37Z"/>
    <path class="cls-2" d="M35.97,18.36c.09-.04.17-.08.26-.12-.09.04-.18.08-.26.12Z"/>
    <path class="cls-2" d="M38.88,17.41c.11-.02.22-.04.34-.06-.11.02-.22.04-.34.06Z"/>
    <path class="cls-2" d="M37.97,17.62c.1-.03.2-.05.3-.07-.1.02-.2.05-.3.07Z"/>
    <path class="cls-2" d="M39.85,17.26c.11-.01.21-.03.32-.03-.11,0-.22.02-.32.03Z"/>
    <path class="cls-2" d="M27.49,26.17c.07-.1.14-.19.21-.29-.07.1-.14.19-.21.29Z"/>
    <path class="cls-2" d="M37.09,17.9s.05-.02.08-.03c-.03,0-.05.02-.08.03Z"/>
    <path class="cls-2" d="M45.53,17.91c.1.03.2.07.31.1-.1-.04-.2-.07-.31-.1Z"/>
    <path class="cls-2" d="M44.4,17.59s.05.01.07.02c-.02,0-.05-.01-.07-.02Z"/>
    <path class="cls-2" d="M43.13,17.34c.1.02.2.03.3.05-.1-.02-.2-.03-.3-.05Z"/>
    <path class="cls-2" d="M40.97,17.19c.06,0,.11,0,.17,0-.06,0-.11,0-.17,0Z"/>
    <path class="cls-2" d="M42.11,17.22c.09,0,.18.02.27.03-.09,0-.18-.02-.27-.03Z"/>
    <path class="cls-2" d="M35.1,18.81c.1-.06.2-.11.3-.16-.1.05-.2.11-.3.16Z"/>
    <path class="cls-2" d="M28.78,24.48c.07-.09.15-.18.22-.27-.07.09-.15.18-.22.27Z"/>
    <path class="cls-2" d="M30.32,22.67c.07-.08.14-.15.22-.23-.07.08-.14.15-.22.23Z"/>
    <path class="cls-2" d="M29.56,23.52s.06-.07.09-.11c-.03.04-.06.07-.09.11Z"/>
    <path class="cls-2" d="M28.12,25.33c.08-.1.16-.21.24-.31-.08.1-.16.21-.24.31Z"/>
    <path class="cls-2" d="M34.28,19.29c.09-.06.19-.12.28-.17-.09.06-.19.11-.28.17Z"/>
    <path class="cls-2" d="M32.55,20.56c.07-.05.13-.11.2-.17-.07.05-.13.11-.2.17Z"/>
    <path class="cls-2" d="M33.5,19.82c.06-.05.13-.09.2-.14-.07.05-.13.09-.2.14Z"/>
    <path class="cls-2" d="M31.75,21.26c.09-.08.17-.16.26-.24-.09.08-.18.16-.26.24Z"/>
    <path class="cls-2" d="M31.02,21.96c.09-.09.17-.17.26-.26-.09.08-.17.17-.26.26Z"/>
    <path class="cls-1" d="M50.91,44.78c.71-1.74-.09-2.99,1.21-4.65,1.76-2.24,5.52-2.04,6.92.51.58,1.07.49,3.26,1.63,3.51,1.83.4,1.04-2.8.66-3.79-2.06-5.25-9.77-5.08-11.8.04-.61,1.55-1.26,5.2,1.37,4.38Z"/>
    <path class="cls-1" d="M41.26,45.57c1.39-.86-.68-4.68-1.57-5.6-1.35-1.4-3.49-1.95-5.38-1.64-2.5.42-4.83,3-5.07,5.51-.12,1.28-.06,3.82,1.87,2.72,1-1.01-.47-3.77,2.04-5.39,2.12-1.36,4.88-.61,5.98,1.65.46.95.5,3.75,2.13,2.74Z"/>
    <path class="cls-1" d="M47.62,53.64c1.4-.24,5.48-2.73,4.24-4.39l-.68-.36c-2.33,1.69-3.55,3.37-6.79,2.69-1.29-.27-3.15-2.25-4.01-1.18-1.07,1.33,2.33,2.97,3.44,3.18,1.1.21,2.71.25,3.81.06Z"/>
  </g>
</svg>